<?xml version="1.0" encoding="utf-8"?>
<!-- Generator: Adobe Illustrator 26.3.1, SVG Export Plug-In . SVG Version: 6.00 Build 0)  -->
<svg version="1.1" id="Layer_1" xmlns="http://www.w3.org/2000/svg" xmlns:xlink="http://www.w3.org/1999/xlink" x="0px" y="0px"
	 viewBox="0 0 800 800" style="enable-background:new 0 0 800 800;" xml:space="preserve">
<style type="text/css">
	.st0{fill:#F5F0EF;}
	.st1{fill:#5A6175;fill-opacity:0.1;}
	.st2{fill:#FFFFFF;stroke:#4B494B;stroke-width:6;stroke-miterlimit:10;}
	.st3{fill:#FFFFFF;}
	.st4{fill:#4B494B;}
	.st5{fill:none;stroke:#4A4A4B;stroke-width:5.0841;stroke-linecap:round;stroke-linejoin:round;stroke-miterlimit:10;}
	.st6{fill:#4A4A4B;}
	.st7{fill:#2BB673;}
	.st8{fill:none;stroke:#4A494A;stroke-width:4;stroke-linecap:round;stroke-linejoin:round;stroke-miterlimit:10;}
	.st9{fill:#4A494A;}
	.st10{fill:#FFFFFF;stroke:#4B494B;stroke-width:6;stroke-linecap:round;stroke-linejoin:round;stroke-miterlimit:10;}
	.st11{fill:#EE2D4D;stroke:#4A494A;stroke-width:6.8112;stroke-linecap:round;stroke-linejoin:round;stroke-miterlimit:10;}
	.st12{fill:none;stroke:#4A494A;stroke-width:6.8112;stroke-linecap:round;stroke-linejoin:round;stroke-miterlimit:10;}
	.st13{fill:none;stroke:#FFFFFF;stroke-width:0.8808;stroke-miterlimit:10;}
	.st14{fill:#FFFFFF;stroke:#4B494B;stroke-width:5;stroke-miterlimit:10;}
	.st15{fill:none;stroke:#4A494A;stroke-width:5.3172;stroke-linecap:round;stroke-linejoin:round;stroke-miterlimit:10;}
	.st16{fill:none;stroke:#B9C9E7;stroke-width:7.8239;stroke-linecap:round;stroke-linejoin:round;stroke-miterlimit:10;}
	.st17{fill:none;stroke:#939393;stroke-width:3.4741;stroke-linecap:round;stroke-miterlimit:10;}
	.st18{fill:none;stroke:#FFFFFF;stroke-width:3.1368;stroke-linecap:round;stroke-linejoin:round;stroke-miterlimit:10;}
	.st19{fill:none;stroke:#4A4A4B;stroke-width:3.2864;stroke-linecap:round;stroke-linejoin:round;stroke-miterlimit:10;}
</style>
<g>
	<path class="st0" d="M337.53,789H38.66c-16.76,0-30.34-13.58-30.34-30.34V459.79c0-16.76,13.58-30.34,30.34-30.34h298.87
		c16.76,0,30.34,13.58,30.34,30.34v298.87C367.87,775.42,354.29,789,337.53,789z"/>
	<path class="st1" d="M286.45,713.25H86.81c-5.16,0-9.35-3.55-9.35-7.93c0-4.38,4.19-7.93,9.35-7.93h199.65
		c5.16,0,9.35,3.55,9.35,7.93C295.8,709.7,291.61,713.25,286.45,713.25z"/>
	<path class="st2" d="M139.82,701.21l-13.16-6.18c-4.34-2.04-6.21-7.21-4.17-11.56l9.12-19.4c0.61-1.29,2.15-1.85,3.45-1.24
		l24.19,11.37c1.29,0.61,1.85,2.15,1.24,3.45l-9.12,19.4C149.34,701.39,144.16,703.26,139.82,701.21z"/>
	<g>
		<path class="st3" d="M93.54,616.9c-1.09-4.37-3.93-8.38-7.93-10.46c-4-2.08-9.14-2.05-12.88,0.47c-3.74,2.51-5.73,7.55-4.33,11.83
			c0.89,2.71,3.14,5.02,5.93,5.64c2.78,0.62,5.98-0.68,7.26-3.23c1.28-2.55,0.24-6.1-2.35-7.29"/>
		<g>
			<path class="st4" d="M95.95,616.23c-1.37-5.25-4.9-10.14-9.95-12.37c-5.29-2.33-11.76-1.81-16.16,2.14
				c-4.01,3.6-5.55,9.69-3.34,14.66c2.28,5.12,8.25,7.87,13.45,5.37c2.73-1.31,4.55-3.98,4.69-7.01c0.14-2.94-1.48-5.99-4.13-7.33
				c-2.87-1.44-5.4,2.87-2.52,4.32c2.49,1.25,2.06,4.66-0.56,5.71c-2.87,1.15-5.82-1.08-6.66-3.82c-0.95-3.11,0.39-6.63,2.91-8.61
				c2.76-2.18,6.81-2.33,9.98-1.03c3.88,1.59,6.45,5.36,7.47,9.3C91.94,620.67,96.77,619.35,95.95,616.23L95.95,616.23z"/>
		</g>
	</g>
	<path class="st2" d="M250.78,693.3l-12.31,7.73c-4.06,2.55-9.42,1.33-11.98-2.73l-11.41-18.15c-0.76-1.21-0.4-2.81,0.82-3.57
		l22.63-14.22c1.21-0.76,2.81-0.4,3.57,0.82l11.41,18.15C256.07,685.39,254.85,690.75,250.78,693.3z"/>
	<ellipse class="st2" cx="183.62" cy="620.71" rx="88.45" ry="70.08"/>
	<path class="st2" d="M287.38,636.85l-14.67,5.77l-0.5-38.92l13.94,4.43c1.99,0.64,3.34,2.49,3.34,4.58v20.82
		C289.5,634.95,288.68,636.25,287.38,636.85z"/>
	<path class="st5" d="M140.81,581.92c0,0,33.66-22.89,73.24-4.04"/>
	<circle class="st6" cx="242.86" cy="599.24" r="6.19"/>
	<path class="st3" d="M173.13,595.56v-4.19h7.24v4.19c6.28,1.29,9.5,6.11,9.5,13.76v1.77h-8.37v-2.33c0-4.02-1.61-5.55-4.42-5.55
		c-2.82,0-4.43,1.53-4.43,5.55c0,4.02,1.61,6.84,7.57,11.59c7.24,5.79,9.73,10.22,9.73,16.66c0,7.64-3.3,12.55-9.58,13.84v4.1h-7.24
		v-4.1c-6.36-1.29-9.58-6.2-9.58-13.84v-3.86h8.37v4.43c0,4.02,1.77,5.47,4.58,5.47c2.82,0,4.59-1.45,4.59-5.47
		c0-4.02-1.61-6.92-7.57-11.59c-7.25-5.72-9.74-10.22-9.74-16.66C163.8,601.76,166.93,596.93,173.13,595.56z"/>
	<path class="st3" d="M144.38,609.94v-2.01h3.47v2.01c3.01,0.62,4.55,2.93,4.55,6.59v0.85h-4.01v-1.12c0-1.93-0.77-2.66-2.12-2.66
		c-1.35,0-2.12,0.73-2.12,2.66s0.77,3.28,3.62,5.55c3.47,2.78,4.66,4.9,4.66,7.98c0,3.66-1.58,6.01-4.59,6.63v1.97h-3.47v-1.97
		c-3.04-0.62-4.59-2.97-4.59-6.63v-1.85h4.01v2.12c0,1.93,0.85,2.62,2.2,2.62s2.2-0.69,2.2-2.62s-0.77-3.32-3.62-5.55
		c-3.47-2.74-4.67-4.9-4.67-7.98C139.91,612.91,141.41,610.59,144.38,609.94z"/>
	<path class="st3" d="M207.43,609.94v-2.01h3.47v2.01c3.01,0.62,4.55,2.93,4.55,6.59v0.85h-4.01v-1.12c0-1.93-0.77-2.66-2.12-2.66
		c-1.35,0-2.12,0.73-2.12,2.66s0.77,3.28,3.62,5.55c3.47,2.78,4.66,4.9,4.66,7.98c0,3.66-1.58,6.01-4.59,6.63v1.97h-3.47v-1.97
		c-3.04-0.62-4.59-2.97-4.59-6.63v-1.85h4.01v2.12c0,1.93,0.85,2.62,2.2,2.62s2.2-0.69,2.2-2.62s-0.77-3.32-3.62-5.55
		c-3.47-2.74-4.67-4.9-4.67-7.98C202.95,612.91,204.46,610.59,207.43,609.94z"/>
	<g>
		<circle class="st7" cx="176.76" cy="526.45" r="34.53"/>
		<circle class="st8" cx="176.89" cy="526.45" r="26.1"/>
		<path class="st9" d="M175.08,514.08v-1.94h3.35v1.94c2.91,0.6,4.4,2.83,4.4,6.37v0.82h-3.88v-1.08c0-1.86-0.75-2.57-2.05-2.57
			c-1.31,0-2.05,0.71-2.05,2.57c0,1.86,0.75,3.17,3.5,5.37c3.35,2.68,4.51,4.73,4.51,7.71c0,3.54-1.53,5.81-4.44,6.41v1.9h-3.35
			v-1.9c-2.94-0.6-4.44-2.87-4.44-6.41v-1.79h3.88v2.05c0,1.86,0.82,2.53,2.12,2.53s2.13-0.67,2.13-2.53s-0.75-3.21-3.5-5.37
			c-3.36-2.65-4.51-4.73-4.51-7.72C170.75,516.95,172.21,514.71,175.08,514.08z"/>
	</g>
	<g>
		<path class="st3" d="M236.41,565.57l20.76-18.9c0.32-0.29,0.68-0.44,1.09-0.44c0.62,0,1.57,0.4,1.67,1.51l3.27,36.55
			L236.41,565.57z"/>
		<path class="st4" d="M257.18,550.72l2.45,27.42l-18.42-12.88L257.18,550.72 M258.26,543.24c-1.08,0-2.19,0.38-3.11,1.22
			l-23.54,21.43l35.14,24.56l-3.84-42.97C262.68,544.89,260.52,543.24,258.26,543.24L258.26,543.24z"/>
	</g>
	<path class="st10" d="M210.76,551.66l20.85-24.04c2.52-2.9,7.27-1.67,8.06,2.09l8.86,42.22L210.76,551.66z"/>
</g>
<g>
	<path class="st0" d="M762.34,789H463.47c-16.76,0-30.34-13.58-30.34-30.34V459.79c0-16.76,13.58-30.34,30.34-30.34h298.87
		c16.76,0,30.34,13.58,30.34,30.34v298.87C792.68,775.42,779.09,789,762.34,789z"/>
	<g>
		<path class="st1" d="M733.44,693.43h-251c-3.71,0-6.74,3.04-6.74,6.74s3.04,6.74,6.74,6.74h251c3.71,0,6.74-3.04,6.74-6.74
			S737.15,693.43,733.44,693.43"/>
		<g>
			<circle class="st7" cx="531.88" cy="664.13" r="25.74"/>
			<circle class="st7" cx="682.64" cy="664.13" r="25.74"/>
			<g>
				<path class="st3" d="M607.65,605.36c5.69,6.52,11.37,13.03,17.06,19.55c2.87,3.29,5.84,6.76,6.86,11.01
					c0.71,2.94,0.42,6.02,0.11,9.02c-1.2,11.72-2.67,23.71-8.03,34.2c-0.96,1.87-2.53,3.95-4.62,3.68
					c-1.34-0.18-2.37-1.35-2.79-2.63s-0.35-2.67-0.27-4.01c0.43-7.63,0.87-15.27,1.3-22.9c0.31-5.5,0.62-11.1-0.67-16.46
					c-1.3-5.45-4.18-10.37-6.46-15.49s-4.02-10.8-2.86-16.28"/>
				<g>
					<path class="st4" d="M605.89,607.12c3.83,4.39,7.65,8.77,11.48,13.16c1.95,2.23,3.9,4.46,5.85,6.7
						c1.53,1.76,3.04,3.53,4.24,5.54c1.24,2.07,1.96,4.27,2.05,6.69c0.1,2.73-0.28,5.47-0.57,8.18c-0.55,5.14-1.2,10.27-2.29,15.32
						c-1.08,5.01-2.57,9.97-4.84,14.57c-0.37,0.74-1.6,3.63-2.73,2.9c-0.55-0.36-0.62-1.41-0.65-1.98c-0.08-1.5,0.1-3.03,0.19-4.52
						c0.33-5.81,0.66-11.62,0.99-17.42c0.32-5.62,0.78-11.27,0.01-16.87c-0.84-6.04-3.56-11.41-6.16-16.85
						c-2.46-5.16-4.91-11.01-3.76-16.83c0.26-1.32-0.38-2.7-1.75-3.08c-1.23-0.34-2.81,0.41-3.08,1.75c-1.2,6.1,0.42,12,2.84,17.58
						c2.29,5.29,5.33,10.3,6.59,15.98c1.29,5.82,0.66,11.93,0.33,17.83c-0.36,6.31-0.72,12.61-1.07,18.92
						c-0.17,2.94-0.44,6.04,1.53,8.49c1.73,2.14,4.7,2.83,7.12,1.4c2.35-1.39,3.59-3.99,4.67-6.37c1.19-2.63,2.21-5.33,3.04-8.1
						c1.68-5.58,2.63-11.35,3.37-17.12c0.36-2.83,0.67-5.67,0.95-8.51c0.31-3.07,0.48-6.18-0.25-9.21
						c-1.48-6.15-6.44-10.9-10.46-15.5c-4.7-5.39-9.4-10.78-14.11-16.16c-0.89-1.02-2.63-0.91-3.54,0
						C604.88,604.6,605,606.1,605.89,607.12L605.89,607.12z"/>
				</g>
			</g>
			<line class="st11" x1="616.63" y1="615.64" x2="584.54" y2="615.64"/>
			<circle class="st12" cx="531.88" cy="664.13" r="29.5"/>
			<circle class="st12" cx="682.64" cy="664.13" r="29.5"/>
			<path class="st12" d="M531.06,664.13l67.23-47.67l83.53,47.67L668.58,597h22.46c4.47,0,8.1,3.63,8.1,8.1v0
				c0,4.47-3.63,8.1-8.1,8.1h-7.18"/>
			<g>
				<path class="st3" d="M605.75,553.94c-5.38-2.58-11.86-2.76-17.37-0.49s-9.99,6.96-12,12.57c-2.42,6.77-1.29,14.28,0.51,21.24
					c2.56,9.9,6.42,19.47,11.46,28.37c3.05,5.4,6.57,10.63,8.43,16.55c1.87,5.92,1.84,12.84-1.85,17.83
					c-1.82,2.46-4.37,4.25-6.64,6.3s-4.38,4.55-4.85,7.57c-0.46,3.02,1.35,6.54,4.38,6.99c2.38,0.35,4.58-1.18,6.47-2.65
					c7.68-6,15.08-12.67,20.02-21.07c4.94-8.4,7.16-18.83,4.02-28.06c-2.17-6.37-6.67-11.69-9.25-17.9
					c-2.58-6.21-2.61-14.49,2.78-18.51c2.81-2.09,6.56-2.57,10.03-2.05c3.46,0.52,6.72,1.93,9.93,3.33
					c10.3,4.49,20.6,8.97,30.89,13.46c2.03,0.88,4.13,1.79,6.35,1.8s4.59-1.11,5.37-3.18c0.65-1.75,0.02-3.76-1.14-5.22
					c-1.16-1.46-2.77-2.47-4.36-3.45L605.75,553.94z"/>
				<g>
					<path class="st4" d="M607.01,551.78c-8.27-3.86-18-2.97-25.23,2.69c-7,5.48-9.84,14.09-9.19,22.77
						c0.7,9.31,3.87,18.59,7.47,27.14c1.86,4.42,3.97,8.72,6.34,12.89c2.23,3.92,4.67,7.73,6.54,11.84
						c1.68,3.69,2.72,7.67,2.53,11.74c-0.19,3.96-1.81,7.29-4.69,9.98c-3.07,2.86-6.76,5.26-8.66,9.15
						c-1.8,3.7-1.71,8.37,1.42,11.37c1.57,1.51,3.68,2.24,5.85,1.97c2.43-0.3,4.44-1.63,6.33-3.1c3.42-2.65,6.75-5.41,9.86-8.41
						c6.34-6.09,11.78-13.26,14.64-21.66c2.92-8.57,2.72-17.72-1.21-25.92c-3.37-7.02-9.25-13.43-9.12-21.64
						c0.05-2.95,0.95-6.06,3.39-7.91c3.28-2.49,7.8-1.99,11.48-0.86c4.64,1.43,9.07,3.68,13.51,5.62c4.69,2.05,9.39,4.09,14.08,6.14
						c2.27,0.99,4.54,1.98,6.82,2.97c2.23,0.97,4.46,2.11,6.82,2.71c4.18,1.05,9.48-0.19,10.89-4.79c1.66-5.4-3.31-9.51-7.53-11.74
						c-5.82-3.08-11.63-6.15-17.45-9.23c-8.81-4.66-17.62-9.31-26.43-13.97c-5.87-3.1-11.73-6.2-17.6-9.3
						C607.6,552.09,607.31,551.93,607.01,551.78c-2.84-1.5-5.37,2.81-2.52,4.32c3.93,2.08,7.87,4.16,11.8,6.24
						c8.25,4.36,16.5,8.72,24.75,13.08c7.26,3.84,14.52,7.67,21.77,11.51c1.56,0.82,3.13,1.62,4.67,2.47
						c1.67,0.92,3.77,2.16,4.5,4.03c0.49,1.24,0.09,2.35-1.13,2.91c-1.68,0.77-3.57,0.2-5.2-0.4c-4.42-1.63-8.71-3.75-13.03-5.63
						c-4.54-1.98-9.09-3.96-13.63-5.94c-7.79-3.4-17.05-8.85-25.71-5.3c-7.49,3.06-9.35,11.42-7.86,18.68
						c1.65,8.07,7.76,14.15,10.43,21.79c2.68,7.66,1.38,16.19-2.11,23.38c-3.62,7.46-9.39,13.58-15.62,18.95
						c-1.61,1.39-3.26,2.73-4.93,4.05c-1.3,1.02-3.16,2.73-4.96,2.49c-1.09-0.15-1.83-1.2-2.16-2.25c-0.44-1.42-0.08-2.87,0.64-4.16
						c1.94-3.48,5.61-5.56,8.35-8.34c3.01-3.04,4.72-6.84,5.25-11.06c1.08-8.57-2.94-16.45-7.13-23.62
						c-4.55-7.78-8.58-15.7-11.47-24.26c-1.43-4.24-2.69-8.57-3.51-12.97c-0.8-4.23-1.1-8.7-0.06-12.91
						c1.79-7.21,7.67-12.79,14.97-14.17c3.78-0.71,7.89-0.18,11.37,1.45c1.22,0.57,2.69,0.34,3.42-0.9
						C608.54,554.12,608.24,552.35,607.01,551.78z"/>
				</g>
			</g>
			<path class="st13" d="M668.43,590.43"/>
			<circle class="st14" cx="606.38" cy="530.32" r="11.08"/>
		</g>
	</g>
</g>
<g>
	<path class="st0" d="M762.34,370.55H463.47c-16.76,0-30.34-13.58-30.34-30.34V41.34c0-16.76,13.58-30.34,30.34-30.34h298.87
		c16.76,0,30.34,13.58,30.34,30.34v298.87C792.68,356.97,779.09,370.55,762.34,370.55z"/>
	<path class="st1" d="M685.44,269.88H485.79c-5.16,0-9.35-3.55-9.35-7.93c0-4.38,4.19-7.93,9.35-7.93h199.65
		c5.16,0,9.35,3.55,9.35,7.93C694.78,266.33,690.6,269.88,685.44,269.88z"/>
	<rect x="645.15" y="123.68" class="st7" width="80.68" height="48.01"/>
	<rect x="503.56" y="156.32" class="st3" width="161.43" height="97.7"/>
	<path class="st15" d="M499.97,249.07v-86.6c0-4.84,3.96-8.81,8.81-8.81h149.36c4.84,0,8.81,3.96,8.81,8.81v86.6
		c0,4.84-3.96,8.81-8.81,8.81H508.78C503.93,257.87,499.97,253.91,499.97,249.07z"/>
	<path class="st15" d="M666.94,159.57"/>
	<g>
		<circle class="st9" cx="593.7" cy="185.79" r="3.54"/>
		<path class="st9" d="M622.82,188.82h-21.01c-0.9,0-1.63-0.73-1.63-1.63v-2.81c0-0.9,0.73-1.63,1.63-1.63h21.01
			c0.9,0,1.63,0.73,1.63,1.63v2.81C624.46,188.09,623.72,188.82,622.82,188.82z"/>
	</g>
	<g>
		<circle class="st9" cx="593.7" cy="204.01" r="3.54"/>
		<path class="st9" d="M637.39,207.05h-35.13c-1.14,0-2.08-0.93-2.08-2.08v-1.92c0-1.14,0.93-2.08,2.08-2.08h35.13
			c1.14,0,2.08,0.93,2.08,2.08l0,1.92C639.46,206.11,638.53,207.05,637.39,207.05z"/>
	</g>
	<g>
		<circle class="st9" cx="593.7" cy="222.23" r="3.54"/>
		<path class="st9" d="M622.92,225.27h-21.1c-0.9,0-1.64-0.74-1.64-1.64v-2.8c0-0.9,0.74-1.64,1.64-1.64h21.1
			c0.9,0,1.64,0.74,1.64,1.64v2.8C624.56,224.53,623.82,225.27,622.92,225.27z"/>
	</g>
	<polyline class="st15" points="645.15,139.31 645.15,128.33 645.15,123.68 725.83,123.68 725.83,173.95 677.25,173.95 	"/>
	<polygon class="st15" points="685.49,148.82 725.83,123.68 648.11,125.79 	"/>
	<g>
		<path class="st9" d="M570.32,203.32c0-11.84-9.6-21.43-21.43-21.43c-11.84,0-21.43,9.6-21.43,21.43c0,8.75,5.25,16.26,12.77,19.59
			v-7.24c0-4.91,3.98-8.89,8.89-8.89h0c4.91,0,8.89,3.98,8.89,8.89v7.03C565.28,219.27,570.32,211.89,570.32,203.32z M548.81,204.01
			c-3.93,0-7.11-3.19-7.11-7.11s3.18-7.11,7.11-7.11c3.93,0,7.11,3.19,7.11,7.11S552.74,204.01,548.81,204.01z"/>
		<path class="st9" d="M540.22,222.91"/>
		<path class="st9" d="M558,222.7"/>
	</g>
</g>
<g>
	<path class="st0" d="M337.53,370.55H38.66c-16.76,0-30.34-13.58-30.34-30.34V41.34C8.32,24.58,21.91,11,38.66,11h298.87
		c16.76,0,30.34,13.58,30.34,30.34v298.87C367.87,356.97,354.29,370.55,337.53,370.55z"/>
	<g>
		<path class="st1" d="M282.7,248.92l-97.74,20.32l-95.18-20.32c-4.99,0-9.03-3.43-9.03-7.66c0-4.23,4.04-7.66,9.03-7.66l95.4,20.32
			l97.52-20.32c4.99,0,9.03,3.43,9.03,7.66C291.73,245.49,287.69,248.92,282.7,248.92z"/>
		<path class="st15" d="M284.75,229.04l-98.53,19.74c-0.58,0.12-1.17,0.11-1.75-0.01l-94.09-19.71c-2.02-0.42-3.47-2.21-3.47-4.27
			L85.48,99.23c0-2.97,2.91-5.07,5.73-4.14l92.8,29.84c0.87,0.29,1.8,0.29,2.68,0.02l95.9-30.21c2.81-0.89,5.67,1.21,5.67,4.16
			v125.87C288.26,226.84,286.79,228.63,284.75,229.04z"/>
		<path class="st15" d="M184.79,248.74c-0.58,0.12-1.17,0.11-1.75-0.01l-94.09-19.71c-2.02-0.42-3.47-2.21-3.47-4.27V98.93
			c0-2.97,2.91-5.07,5.73-4.14l89.64,28.82c0.87,0.29,2.29,1.59,3.16,1.31"/>
		<g>
			<path class="st7" d="M270.93,215.23l-85.73,17.23c-0.5,0.09-1.02,0.09-1.52-0.01l-80.92-17.2c-1.75-0.32-3-1.67-3-3.24
				l-1.24-95.34c0-2.26,2.51-3.85,4.96-3.15l80.29,26.35c0.75,0.22,1.56,0.22,2.32,0.01l82.97-26.63c2.43-0.67,4.91,0.92,4.91,3.16
				v95.57C273.96,213.56,272.69,214.92,270.93,215.23z"/>
		</g>
		<path class="st16" d="M167.27,207.62"/>
		<path class="st16" d="M132.88,198.02"/>
		<path class="st17" d="M102.02,189.21"/>
		<g>
			<line class="st18" x1="116.36" y1="132.23" x2="144.14" y2="140.1"/>
			<line class="st18" x1="113.56" y1="141.07" x2="168.12" y2="156.82"/>
			<line class="st18" x1="113.3" y1="152" x2="167.86" y2="167.75"/>
			<line class="st18" x1="113.03" y1="162.93" x2="167.59" y2="178.67"/>
			<line class="st18" x1="112.76" y1="173.85" x2="167.33" y2="189.6"/>
			<line class="st18" x1="112.5" y1="184.78" x2="167.06" y2="200.53"/>
			<line class="st18" x1="153.27" y1="142.85" x2="169.48" y2="147.6"/>
			<g>
				<line class="st18" x1="137.02" y1="203.29" x2="164.8" y2="211.17"/>
				<line class="st18" x1="112.14" y1="195.99" x2="128.34" y2="200.75"/>
			</g>
		</g>
		<line class="st19" x1="255.7" y1="130.66" x2="198.47" y2="146.92"/>
		<line class="st19" x1="255.93" y1="140.58" x2="198.7" y2="156.83"/>
		<line class="st19" x1="256.17" y1="151.76" x2="198.93" y2="168.01"/>
		<line class="st19" x1="256.4" y1="162.94" x2="199.16" y2="179.19"/>
		<line class="st19" x1="256.63" y1="174.12" x2="199.4" y2="190.37"/>
		<line class="st19" x1="256.86" y1="185.3" x2="199.63" y2="201.55"/>
		<line class="st19" x1="257.09" y1="196.48" x2="199.86" y2="212.73"/>
	</g>
</g>
</svg>
