<?xml version="1.0" encoding="utf-8"?>
<!-- Generator: Adobe Illustrator 26.3.1, SVG Export Plug-In . SVG Version: 6.00 Build 0)  -->
<svg version="1.1" xmlns="http://www.w3.org/2000/svg" xmlns:xlink="http://www.w3.org/1999/xlink" x="0px" y="0px"
	 viewBox="0 0 124.86 150" style="enable-background:new 0 0 124.86 150;" xml:space="preserve">
<style type="text/css">
	.st0{display:none;}
	.st1{display:inline;fill:#4E4E50;}
	.st2{display:inline;}
	.st3{clip-path:url(#SVGID_00000093864639437159248250000000254798025978170758_);fill:#FFFFFF;}
	.st4{clip-path:url(#SVGID_00000093864639437159248250000000254798025978170758_);fill:#D2D3D4;}
	.st5{clip-path:url(#SVGID_00000136391642415388876040000013511205433702655117_);fill:#231F20;}
	.st6{clip-path:url(#SVGID_00000012451788716285096630000015128605684873249695_);fill:#231F20;}
	.st7{clip-path:url(#SVGID_00000012451788716285096630000015128605684873249695_);fill:#E01F26;}
	.st8{fill:#4E4E50;}
	.st9{clip-path:url(#SVGID_00000127742541460465908730000005482069816962059662_);fill:#0F5BA7;}
	.st10{clip-path:url(#SVGID_00000127742541460465908730000005482069816962059662_);fill:#AFE1F9;}
	.st11{clip-path:url(#SVGID_00000175290707503168707970000016201388573504118180_);fill:#0F5BA7;}
	.st12{clip-path:url(#SVGID_00000152230580677070182250000000326771843581095819_);fill:none;stroke:#020202;stroke-width:0.6441;}
	.st13{clip-path:url(#SVGID_00000152230580677070182250000000326771843581095819_);fill:none;stroke:#020202;stroke-width:0.3445;}
	
		.st14{clip-path:url(#SVGID_00000152230580677070182250000000326771843581095819_);fill:none;stroke:#020202;stroke-width:0.7533;stroke-miterlimit:8;}
	.st15{clip-path:url(#SVGID_00000075847964444311961880000000102780405790006157_);fill:#FFFFFF;}
	.st16{clip-path:url(#SVGID_00000075847964444311961880000000102780405790006157_);fill:#020202;}
</style>
<g id="Layer_1" class="st0">
	<path class="st1" d="M88.03,143.87h2.81v-8.23l6.27,8.23h2.42v-12.94h-2.81v7.96l-6.07-7.96h-2.62V143.87z M70.71,143.96h2.48
		l2.92-8.47l2.92,8.47h2.48l4.42-13.03h-2.97l-2.68,8.76l-2.9-8.8h-2.44l-2.9,8.8l-2.68-8.76h-3.05L70.71,143.96z M58.64,141.47
		c-2.29,0-3.92-1.85-3.92-4.07v-0.04c0-2.22,1.59-4.03,3.88-4.03c2.29,0,3.92,1.85,3.92,4.07v0.04
		C62.52,139.66,60.93,141.47,58.64,141.47 M58.6,144.09c4,0,6.9-3.01,6.9-6.69v-0.04c0-3.68-2.86-6.66-6.86-6.66s-6.9,3.01-6.9,6.69
		v0.04C51.74,141.12,54.6,144.09,58.6,144.09 M41.79,137.22v-3.72h2.83c1.39,0,2.24,0.63,2.24,1.85v0.04c0,1.09-0.8,1.83-2.18,1.83
		H41.79z M38.95,143.87h2.85v-4.14h2.24l2.77,4.14h3.33l-3.16-4.62c1.64-0.61,2.77-1.92,2.77-4.01v-0.04c0-1.22-0.39-2.24-1.11-2.96
		c-0.85-0.85-2.13-1.31-3.77-1.31h-5.91V143.87z M33.77,139.93v0.04c0,0.96-0.76,1.41-2.02,1.41h-3.38v-2.85h3.29
		C33.12,138.53,33.77,139.06,33.77,139.93 M33.05,134.79c0,0.96-0.8,1.37-2.05,1.37h-2.62v-2.74h2.81c1.2,0,1.87,0.48,1.87,1.33
		V134.79z M25.6,143.87h6.16c2.92,0,4.84-1.18,4.84-3.55v-0.04c0-1.74-0.92-2.61-2.42-3.18c0.92-0.52,1.7-1.33,1.7-2.79v-0.04
		c0-0.89-0.3-1.61-0.89-2.2c-0.74-0.74-1.9-1.14-3.38-1.14H25.6V143.87z"/>
	<g class="st2">
		<defs>
			<rect id="SVGID_1_" x="22.91" y="-1.86" width="78.68" height="115.05"/>
		</defs>
		<clipPath id="SVGID_00000028287545007400483370000003210943353517391492_">
			<use xlink:href="#SVGID_1_"  style="overflow:visible;"/>
		</clipPath>
		<path style="clip-path:url(#SVGID_00000028287545007400483370000003210943353517391492_);fill:#FFFFFF;" d="M52.77,17.32
			c0.11,0.19,0.26,0.43,0.47,0.78c0.55,0.91,1.41,4.35,2.51,5.49c0.59-0.4,1.61-0.91,2.18-1.12c-0.13-0.23-0.75-1.28-1.44-2.18
			c-1.32-1.76-2.28-2.7-2.38-2.85C53.75,17.43,53.15,17.45,52.77,17.32"/>
		<path style="clip-path:url(#SVGID_00000028287545007400483370000003210943353517391492_);fill:#FFFFFF;" d="M62.7,21.9
			c0.26-1.8-0.34-4.79-0.69-5.54c-0.45-0.11-0.91-0.27-1.29-0.45c-0.05,0.23-0.39,1.45-0.5,3.24c-0.06,0.96-0.04,2.43,0.14,2.75
			C60.93,21.84,61.89,21.82,62.7,21.9"/>
		<path style="clip-path:url(#SVGID_00000028287545007400483370000003210943353517391492_);fill:#FFFFFF;" d="M71.27,32.51
			c0-5.42-4.24-9.66-9.66-9.66c-5.34,0-9.66,4.33-9.66,9.66c0,0.26,0.06,0.77,0.14,1.29c2.78-0.65,6.46-0.54,8.1,0.76
			c2.65-1.51,6.47-1.61,9.27,0.02c0.56-0.28,1.13-0.48,1.72-0.65C71.25,33.41,71.27,32.87,71.27,32.51 M59.5,29.21
			c-0.03,0.62-0.56,1.1-1.18,1.07c-0.62-0.03-1.1-0.56-1.07-1.18l0.01-0.12c-0.1-0.15-0.6-0.31-1.35,0.14
			c-0.38,0.23-0.8,0.07-0.15-0.5c0.7-0.6,1.36-0.95,1.94-1.02l0.02-0.01c0.98-0.06,2.25,0.13,2.85,0.38c0.25,0.1-0.01,1.32-0.06,1.3
			c-0.2-0.04-0.65-0.23-1.01-0.14L59.5,29.21z M62.72,32.58c-0.2,0.57-2.23,0.75-2.6,0.01c-0.15-0.3-0.35-1.06-0.07-0.9
			c0.45,0.26,2.08,0.08,2.39,0c0.27-0.07,0.1-0.45,0.27-0.4C62.9,31.34,62.9,32.04,62.72,32.58 M67.49,29.4
			c-0.51-0.42-1.18-0.6-1.43-0.42l0.01,0.09c0.05,0.62-0.4,1.16-1.02,1.22c-0.62,0.05-1.17-0.41-1.22-1.02v-0.05
			c-0.4-0.13-1.05,0.09-1.13,0.06c-0.05-0.02-0.33-1.17,0.03-1.31c0.97-0.4,4.1-0.59,5,1.16C67.83,29.34,67.77,29.62,67.49,29.4"/>
		<path style="clip-path:url(#SVGID_00000028287545007400483370000003210943353517391492_);fill:#FFFFFF;" d="M68.08,17.21
			c-1.14,0.96-2.87,3.29-3.09,5.16c0.53,0.22,1.94,0.88,2.13,1.05c1.4-1.38,1.11-2.9,1.66-4.07c0.24-0.51,0.47-0.91,0.6-1.13
			C68.93,17.97,68.44,17.62,68.08,17.21"/>
		<path style="clip-path:url(#SVGID_00000028287545007400483370000003210943353517391492_);fill:#FFFFFF;" d="M43.24,50.53
			c-1.45,0.04-2.86,0.61-3.69,0.47v9.69c0,0,0.52,0.4,1.98-0.01c1.88-0.53,2.72,0.05,2.72,0.05v-9.78
			C44.23,50.95,44.02,50.51,43.24,50.53"/>
		<path style="clip-path:url(#SVGID_00000028287545007400483370000003210943353517391492_);fill:#D2D3D4;" d="M56.55,46.23H33.3
			V67.3h23.25V46.23z M53.01,63h-6.66v0.84H43.6V63h-6.66V51.75h1.42V49.7c1.45,0.35,3.8-0.45,4.85-0.44c1.18,0,1.77,0.51,1.77,0.51
			s0.6-0.51,1.76-0.51c1.05,0,3.4,0.78,4.85,0.44v2.05h1.42V63z"/>
		<path style="clip-path:url(#SVGID_00000028287545007400483370000003210943353517391492_);fill:#FFFFFF;" d="M79.97,50.53
			c-0.78-0.02-1,0.42-1,0.42v9.78c0,0,0.84-0.59,2.72-0.05c1.45,0.41,1.98,0.01,1.98,0.01V51C82.84,51.15,81.42,50.57,79.97,50.53"
			/>
		<path style="clip-path:url(#SVGID_00000028287545007400483370000003210943353517391492_);fill:#FFFFFF;" d="M46.71,50.53
			c-0.78-0.02-1,0.42-1,0.42v9.78c0,0,0.84-0.59,2.72-0.05c1.45,0.41,1.98,0.01,1.98,0.01V51C49.57,51.15,48.15,50.57,46.71,50.53"
			/>
		<path style="clip-path:url(#SVGID_00000028287545007400483370000003210943353517391492_);fill:#FFFFFF;" d="M74.86,20.9
			c-0.25,0.14-0.84,0.5-1.04,0.65c-1.34,1.01-4.25,2.37-4.92,3.11c0.53,0.48,1.32,1.32,1.68,2.04c0.33,0.01,1.26-0.75,3.13-2.94
			c0.59-0.7,1.23-1.07,2.38-1.71C75.61,21.71,75.2,21.32,74.86,20.9"/>
		<path style="clip-path:url(#SVGID_00000028287545007400483370000003210943353517391492_);fill:#FFFFFF;" d="M79.16,81.32v9.78
			c0,0,0.84-0.58,2.72-0.05c1.45,0.41,1.97,0.02,1.97,0.02v-9.69c-0.83,0.14-2.24-0.43-3.69-0.47
			C79.37,80.88,79.16,81.32,79.16,81.32"/>
		<path style="clip-path:url(#SVGID_00000028287545007400483370000003210943353517391492_);fill:#FFFFFF;" d="M72.99,81.38v9.69
			c0,0,0.52,0.4,1.98-0.01c1.88-0.54,2.72,0.05,2.72,0.05v-9.78c0,0-0.22-0.44-1-0.42C75.24,80.95,73.82,81.52,72.99,81.38"/>
		<path style="clip-path:url(#SVGID_00000028287545007400483370000003210943353517391492_);fill:#FFFFFF;" d="M76.51,50.53
			c-1.45,0.04-2.86,0.61-3.7,0.47v9.69c0,0,0.52,0.4,1.98-0.01c1.88-0.53,2.71,0.05,2.71,0.05v-9.78
			C77.5,50.95,77.29,50.51,76.51,50.53"/>
		<path style="clip-path:url(#SVGID_00000028287545007400483370000003210943353517391492_);fill:#D2D3D4;" d="M89.93,46.23H66.68
			V67.3h23.25V46.23z M86.46,63H79.8v0.84h-2.76V63h-6.66V51.75h1.42V49.7c1.45,0.35,3.8-0.45,4.85-0.44c1.18,0,1.77,0.51,1.77,0.51
			s0.6-0.51,1.77-0.51c1.05,0,3.4,0.78,4.85,0.44v2.05h1.42V63z"/>
		<path style="clip-path:url(#SVGID_00000028287545007400483370000003210943353517391492_);fill:#D2D3D4;" d="M37.39,34.25
			c-1.78-0.04-3.26,0.46-3.78,1.38c-0.96,1.68,0.17,3.13,0.84,3.54c1.55,0.93,3.02,0.32,3.13-0.25c-0.42-0.47-1.15-1.55-1.56-1.56
			c-0.59-0.02-0.55-0.79-0.11-0.93c1.03-0.34,2.04,1.62,3.52,2.68c1.32,0.95,3.18,0.25,3.18-0.13
			C41.8,38.24,40.83,34.33,37.39,34.25"/>
		<path style="clip-path:url(#SVGID_00000028287545007400483370000003210943353517391492_);fill:#D2D3D4;" d="M58.5,34.95
			c-2.04-0.96-4.91-0.64-7.33,0.22c0.67,0.89,1.78,2.98,2.36,3.68c1.11,1.35,3.01,0.67,3.09,0.26c-0.13-0.25-1.15-1.57-1.54-1.79
			c-0.36-0.2-0.57-0.53-0.37-0.82c0.34-0.47,1.13,0,1.56,0.52c0.43,0.52,1.63,2.03,2.03,2.3c1.19,0.81,3.46,0.39,3.27-0.31
			C60.8,37.99,60.46,35.87,58.5,34.95"/>
		<path style="clip-path:url(#SVGID_00000028287545007400483370000003210943353517391492_);fill:#FFFFFF;" d="M54.11,24.9
			c-1.67-1.35-3.21-1.64-5.67-2.79c-0.55-0.26-1.49-0.89-1.54-0.92c-0.07-0.05-0.19-0.12-0.34-0.22c-0.14,0.46-0.44,1.08-0.71,1.43
			c0.38,0.49,3.12,3.62,6.63,4.59C52.88,26.34,53.5,25.57,54.11,24.9"/>
		<path style="clip-path:url(#SVGID_00000028287545007400483370000003210943353517391492_);fill:#FFFFFF;" d="M51.43,28.99
			c-0.63-0.62-1.88-1.16-3.5-1.02c-3.33,0.26-5.52,0.05-6.78-0.13c-2.15-0.31-3.49-0.01-4.57-0.01c-3.27,0,0.09,0.3,0.48,0.44
			c1.54,0.61,4.64,1.38,7.09,1.2c1.19-0.08,3.19,0.64,3.54,0.76c0.88,0.31,2.47,0.82,3.33,0.81C51.06,30.65,51.26,29.48,51.43,28.99
			"/>
		<path style="clip-path:url(#SVGID_00000028287545007400483370000003210943353517391492_);fill:#D2D3D4;" d="M72.79,38.88
			c1.23,1.25,2.91,0.71,2.99,0.3c-0.14-0.25-0.91-1.39-1.37-1.64c-0.37-0.21-0.61-0.54-0.41-0.83c0.34-0.47,1.01-0.14,1.44,0.38
			c0.43,0.52,1.62,2.07,2.03,2.3c1.08,0.6,3.45,0.38,3.27-0.31c-0.66-1.04-1.12-3.15-3.07-4.07c-2.03-0.96-4.64-0.71-7.06,0.15
			C71.03,36.04,72.16,38.25,72.79,38.88"/>
		<path style="clip-path:url(#SVGID_00000028287545007400483370000003210943353517391492_);fill:#FFFFFF;" d="M89.28,27.32
			c-0.16-0.03-0.79-0.11-1.19-0.11c-0.53,0-4,0.02-4.94,0.16c-1.94,0.3-5.7,0.14-7.75,0.07c-1.54-0.06-3.31,0.54-3.85,0.83
			c0,0,0.59,1.48,0.63,2.49c0.66,0.11,1.28-0.71,3.15-0.68c1.94,0.03,6.73-0.23,9.15-1.17c1.81-0.7,3.33-1.05,4.56-1.3
			C89.45,27.53,90.1,27.45,89.28,27.32"/>
		<path style="clip-path:url(#SVGID_00000028287545007400483370000003210943353517391492_);fill:#FFFFFF;" d="M44.24,91.1v-9.78
			c0,0-0.22-0.44-1-0.42c-1.45,0.05-2.86,0.61-3.69,0.47v9.69c0,0,0.52,0.4,1.97-0.01C43.4,90.51,44.24,91.1,44.24,91.1"/>
		<path style="clip-path:url(#SVGID_00000028287545007400483370000003210943353517391492_);fill:#FFFFFF;" d="M45.93,17.64
			c0.15-0.13,0.37-0.11,0.56-0.05c1.64,0.53,4,0.17,5.09-1.57c0.15-0.25,0.46-0.33,0.72-0.22c1.13,0.46,3.45,0.67,6.28-2.2
			c0.21-0.22,0.56-0.19,0.79,0c2.48,1.99,5.07,2.12,7.7,0.37c0.16-0.11,0.37-0.25,0.55-0.17c0.18,0.07,0.32,0.23,0.36,0.42
			c0.84,3.88,4.89,3.54,6.11,3.34c0.15-0.02,0.31,0.01,0.44,0.11c0.13,0.09,0.21,0.24,0.23,0.39c0.13,0.91,1.14,2.67,2.88,3.57
			c1.49,0.77,3.11,0.71,4.82-0.18c0.17-0.09,0.38-0.09,0.55,0.01c2.2,1.17,4.17,1.24,5.42,0.19c0.88-0.74,1.24-1.95,0.89-3.01
			c-0.39-1.18-1.56-1.91-3.21-2.01c-0.28-0.02-0.51-0.22-0.55-0.5c-0.15-0.94-0.68-1.71-1.52-2.23c-1.29-0.79-3.19-0.88-5.08-0.25
			c-0.16,0.05-0.35,0.04-0.5-0.06s-0.25-0.25-0.28-0.42c-0.1-0.73-0.42-1.71-1.33-2.27c-0.96-0.59-2.41-0.57-4.19,0.04
			c-0.28,0.09-0.58-0.03-0.72-0.28c-1.15-2.2-2.76-3.63-4.66-4.13c-1.7-0.45-3.59-0.12-5.19,0.9c-0.21,0.13-0.48,0.12-0.68-0.02
			c-1.6-1.21-3.53-1.59-5.27-1.06c-1.7,0.52-2.99,1.84-3.64,3.73c-0.06,0.15-0.17,0.28-0.32,0.34c-0.15,0.07-0.32,0.07-0.47,0.01
			c-2.6-1.05-4.73-1.02-6.15,0.08c-1.22,0.94-1.6,2.43-1.54,2.86c0.04,0.3-0.14,0.57-0.43,0.65l-0.62,0.15
			c-1.44,0.33-2.94,0.67-3.39,2.97c-0.05,0.26-0.26,0.45-0.52,0.47c-2.51,0.25-4.15,1.18-4.49,2.55c-0.25,0.96,0.2,2.06,1.09,2.66
			c0.89,0.6,1.97,0.54,2.95-0.17c0.16-0.12,0.37-0.14,0.56-0.07c1.47,0.56,3.86,0.45,5.31-0.71c1.05-0.84,1.46-2.09,1.23-3.69
			C45.7,17.98,45.77,17.77,45.93,17.64 M85.67,17.81c1.49-0.34,3.28,0.75,2.77,2.75c-0.08,0.34-0.92,0.36-0.89,0.01
			c0.13-1.67-0.7-1.81-1.8-1.8C85.32,18.78,85.35,17.88,85.67,17.81 M79.3,14.83c1.45-0.82,4.41-0.68,5.33,1.96
			c0.16,0.45-0.44,1.21-0.81,0.53c-1.11-2.04-2.91-2.04-4.41-1.47C79.06,15.99,78.76,15.14,79.3,14.83 M73.07,11.79
			c1.34-0.47,3.63-0.69,4.24,1.56c0.17,0.63-0.59,0.93-0.77,0.49c-0.63-1.63-1.79-1.56-3.2-1.12C72.7,12.93,72.86,11.86,73.07,11.79
			 M62.1,9.26c0.97-1.57,6.03-3.04,8.63,1.41c0.27,0.48-0.09,0.77-0.39,0.97c-0.21,0.14-0.33-0.19-0.46-0.41
			c-2.2-3.49-6.19-2.57-7.27-0.95C62.4,10.61,61.81,9.73,62.1,9.26 M53.94,9.51c0.89-1.41,3.94-3.58,6.65-1.19
			c0.3,0.27-0.06,1.25-0.4,1.02c-2.47-1.7-4.42-0.34-5.45,0.89C54.24,10.82,53.73,9.85,53.94,9.51 M39.34,19.37
			c-1.03,0-1.87,0.02-2.59,0.81c-0.78,0.84-0.59,1.31-0.73,1.46c-0.22,0.21-0.75-0.16-0.74-0.57c0.05-1.98,2.44-2.76,3.86-2.6
			C39.68,18.53,39.82,19.37,39.34,19.37 M43.55,16.04c-1.52,0.16-1.96,0.91-2.22,1.75c-0.11,0.32-0.96,0.09-0.83-0.54
			c0.4-1.87,2.42-2.32,3.16-2.16C43.9,15.14,43.82,16.01,43.55,16.04 M44.84,14.03c0.31-1.64,1.92-4.04,5.6-3.11
			c0.45,0.11,0.18,1.26-0.3,1.07c-2.69-1.06-4.03,0.98-4.47,2.59C45.62,14.79,44.72,14.71,44.84,14.03"/>
		<path style="clip-path:url(#SVGID_00000028287545007400483370000003210943353517391492_);fill:#D2D3D4;" d="M66.69,104.97
			c5.86-1.69,11.66-3.96,15.59-7.56c1.39-1.27,2.54-2.6,3.51-4.05H79.8v0.84h-2.76v-0.84h-6.66V82.12h1.42v-2.05
			c1.44,0.35,3.8-0.44,4.85-0.44c1.17,0,1.77,0.51,1.77,0.51s0.6-0.51,1.76-0.51c1.06,0,3.41,0.79,4.85,0.44v2.05h1.42v10.18
			c2.14-3.7,3.13-8.23,3.47-14.6v-0.95H66.69"/>
		<path style="clip-path:url(#SVGID_00000028287545007400483370000003210943353517391492_);fill:#FFFFFF;" d="M48.42,91.05
			c1.45,0.42,1.98,0.01,1.98,0.01v-9.69c-0.83,0.14-2.24-0.42-3.7-0.47c-0.78-0.03-1,0.42-1,0.42v9.77
			C45.71,91.1,46.55,90.51,48.42,91.05"/>
		<path style="clip-path:url(#SVGID_00000028287545007400483370000003210943353517391492_);fill:#D2D3D4;" d="M33.34,77.64
			c0.23,5.82,1.32,10.57,3.59,14.54V82.11h1.42v-2.05c1.44,0.35,3.8-0.45,4.85-0.45c1.18,0.01,1.77,0.51,1.77,0.51
			s0.6-0.51,1.76-0.51c1.05,0,3.4,0.79,4.85,0.45v2.05h1.42v11.25h-6.66v0.84h-2.76v-0.84h-5.93c0.95,1.43,2.07,2.77,3.39,4.01
			c3.7,3.47,9.51,5.82,15.5,7.58V76.74H33.3"/>
	</g>
	<g class="st2">
		<defs>
			<rect id="SVGID_00000009568479662871021350000008603151802078793649_" x="31.68" y="3.49" width="61.15" height="104.36"/>
		</defs>
		<clipPath id="SVGID_00000047778650612941588050000004386323881389808260_">
			<use xlink:href="#SVGID_00000009568479662871021350000008603151802078793649_"  style="overflow:visible;"/>
		</clipPath>
		<path style="clip-path:url(#SVGID_00000047778650612941588050000004386323881389808260_);fill:#231F20;" d="M92.5,26.72
			C92.16,26.46,88.45,26,87.87,26c-0.56,0-3.76,0.03-5,0.22c-1.92,0.28-5.2,0.28-7.69,0c-0.9-0.1-1.9,0.11-2.72,0.38
			c0.16-0.13,0.33-0.29,0.54-0.5c0.73-0.75,1.56-2.19,3.01-2.9c0.37-0.18,0.71-0.37,1.05-0.56c1.22,0.61,3.16,1.03,5.56-0.1
			c3.58,1.79,5.72,0.58,6.48-0.06c0.92-0.78,1.44-1.93,1.44-3.09c0-0.4-0.06-0.81-0.19-1.2c-0.52-1.56-1.94-2.53-3.89-2.76
			c-0.11-0.42-0.29-0.8-0.5-1.17c0.23-0.29,0.44-0.56,0.58-0.73c0.17-0.22,0.76-1.19-0.82-0.38c-0.08,0.04-0.23,0.13-0.42,0.24
			c-0.22-0.22-0.46-0.42-0.74-0.59c-1.47-0.9-3.45-1-5.5-0.46c-0.29-1.09-0.83-2.01-1.68-2.53c-0.9-0.55-2.04-0.71-3.37-0.51
			c0.08-0.19,0.15-0.37,0.22-0.5c0.59-1.25,0.27-1.56-0.35-1.01c-0.7,0.63-1.15,1.07-1.49,1.43c-1.26-2.03-2.93-3.4-4.9-3.92
			c-1.71-0.45-3.55-0.21-5.21,0.59c-0.1-0.84-0.21-1.53-0.33-1.92c-0.31-1.01-0.68-0.22-0.74,0.1c-0.07,0.42-0.16,1-0.28,1.67
			c-1.66-0.89-3.51-1.13-5.23-0.6c-1.9,0.58-3.34,2-4.18,3.96c-0.69-0.25-1.31-0.4-1.9-0.5c-0.35-0.46-0.86-1.04-1.58-1.66
			c-0.48-0.43-0.88-0.2-0.59,0.64c0.11,0.33,0.22,0.62,0.31,0.89c-1.35,0.07-2.34,0.52-3,1.03c-1.31,1.01-1.85,2.47-1.96,3.39
			c-0.08,0.02-0.18,0.04-0.18,0.04c-1.1,0.25-2.59,0.67-3.53,2.14c-0.16-0.1-0.28-0.18-0.33-0.21c-2.78-1.84-1.5,0.53-0.42,1.57
			c-3.7,0.52-4.74,2.3-5,3.35c-0.07,0.27-0.1,0.54-0.1,0.82c0,1.2,0.63,2.4,1.68,3.11c1.24,0.84,2.74,0.79,4.07-0.07
			c1.74,0.56,4.2,0.47,5.96-0.81c1.02,1.1,1.84,1.87,2.29,2.32c1.11,1.1,2.73,1.94,3.56,2.25c-0.82-0.32-2.19-0.66-3.56-0.47
			c-2.95,0.41-4.91-0.12-6.18-0.25c-2.09-0.2-4.23,0.15-5.29,0.15c-1.13,0-2.73,0.53-3.51,0.65c-0.84,0.12-0.79,0.68,0.38,0.99
			c1.16,0.31,3.33,0.51,3.92,0.76c1.89,0.82,5.04,1.51,7.27,1.33c1.58-0.12,3.17,0.65,3.58,0.77c0.78,0.24,2.72,0.77,3.52,0.76
			c0-0.05,0,1.12,0.08,1.67c-0.3,0.1-0.59,0.2-0.85,0.32c-0.88-0.53-4.76-2.11-9.48-0.15c-1-0.35-3.11-1.51-6-0.56
			c-3.57,1.18-2.99,4.45-1.81,5.95c1.6,2.03,4.54,1.62,5.4,0.6c1.92,1.27,3.87,0.84,5.3-0.04c0.93,0.55,5.53,1.46,9.02,0.04
			c0.48,0.35,2.39,1.35,4.85,0.11c1.42,0.84,3.77,0.91,4.98-0.15c0.44,0.37,1.75,0.9,4.54,0.87c3.35-0.04,4.13-0.54,4.6-0.95
			c0.72,0.34,2.61,1.32,4.93,0.33c1.26,0.79,3.77,0.74,5.12-0.14c2.47,1.12,6.99,0.61,8.12-0.16c2.02-1.4,1.04-4.26-1.19-5.62
			c-4.38-2.21-8.46-0.5-9.54,0.06c-1.29-0.87-3.99-1.43-6.79-0.91c0.04-0.33-0.01-0.72-0.01-1.14c0-0.05-0.01-0.09-0.01-0.13
			c0.55-0.17,1.34-0.77,2.95-0.87c2.19-0.15,7.35-0.08,9.93-1.4c1.48-0.75,6.6-1.76,7.28-2.16C93.06,27.27,92.87,26.97,92.5,26.72
			 M73.71,23.76c-1.87,2.19-2.8,2.95-3.13,2.94c-0.36-0.71-1.15-1.56-1.68-2.03c0.67-0.74,3.58-2.1,4.92-3.11
			c0.2-0.15,0.79-0.51,1.04-0.65c0.35,0.41,0.76,0.8,1.23,1.14C74.94,22.69,74.3,23.06,73.71,23.76 M46.89,19
			c1.57,0.25,3.39-0.12,4.71-1.31c1.63,2.6,1.67,4.95,3.24,6.57c-1.98-1.92-3.71-1.88-6.54-3.41c-0.49-0.26-1.22-0.74-1.42-0.84
			c0,0-0.01,0-0.01-0.01c0.03-0.24,0.05-0.49,0.05-0.75C46.91,19.17,46.89,19.08,46.89,19 M58.97,21.91L59.01,22
			c0,0-0.87-1.3-0.97-1.46c-0.3-0.45-0.68-0.91-1.11-1.43c-0.68-0.82-1.27-1.48-1.73-1.98c1.13-0.27,2.42-0.92,3.81-2.23
			c0.15,0.11,0.3,0.19,0.45,0.28c-0.07,0.45-0.15,0.85-0.2,1.14c-0.32,1.75-0.35,3.1-0.37,3.67C58.88,20.53,58.93,21.4,58.97,21.91
			 M56.49,20.29c0.69,0.9,1.31,1.96,1.44,2.18c-0.57,0.21-1.6,0.72-2.18,1.12c-1.1-1.14-1.96-4.58-2.51-5.49
			c-0.21-0.35-0.36-0.59-0.48-0.78c0.38,0.13,0.99,0.11,1.35,0.12C54.22,17.59,55.17,18.53,56.49,20.29 M61.61,22.84
			c5.42,0,9.66,4.25,9.66,9.66c0,0.36-0.03,0.91-0.09,1.43c-0.59,0.17-1.16,0.37-1.72,0.65c-2.8-1.63-6.62-1.54-9.27-0.03
			c-1.64-1.29-5.32-1.4-8.1-0.76c-0.09-0.52-0.14-1.04-0.14-1.29C51.95,27.17,56.27,22.84,61.61,22.84 M60.22,19.15
			c0.11-1.79,0.45-3.01,0.5-3.24c0.38,0.18,0.84,0.34,1.29,0.45c0.35,0.75,0.95,3.73,0.69,5.53c-0.82-0.07-1.77-0.05-2.34,0
			C60.18,21.58,60.16,20.11,60.22,19.15 M68.78,19.35c-0.54,1.17-0.26,2.69-1.66,4.07c-0.19-0.16-1.6-0.83-2.13-1.05
			c0.22-1.87,1.96-4.19,3.09-5.16c0.36,0.4,0.84,0.75,1.3,1C69.25,18.44,69.02,18.84,68.78,19.35 M70.26,18.97
			c0.05-0.08,0.1-0.18,0.15-0.29c1.04,0.35,2.18,0.44,3.3,0.32c0.11,0.37,0.29,0.76,0.51,1.15c-0.01,0-0.02,0.01-0.02,0.01
			c-0.55,0.26-2.23,1.41-4.69,2.78c-0.64,0.35-1.02,0.69-1.25,0.92c0.27-0.37,0.6-0.84,0.81-1.37
			C69.51,21.38,69.4,20.49,70.26,18.97 M64.32,20.39c-0.27,0.68-0.37,1.03-0.47,1.41c0.21-1.45-0.18-3.57-0.6-5.4
			c1.26,0.03,2.54-0.3,3.81-1.02c0.1,0.29,0.23,0.54,0.36,0.79C66.7,16.82,64.98,18.69,64.32,20.39 M44.5,21.87
			c-1.45,1.16-3.83,1.27-5.31,0.71c-0.18-0.07-0.4-0.04-0.56,0.07c-0.98,0.72-2.06,0.78-2.95,0.17c-0.89-0.6-1.33-1.69-1.09-2.66
			c0.35-1.37,1.99-2.3,4.49-2.55c0.26-0.03,0.47-0.22,0.52-0.47c0.45-2.3,1.94-2.64,3.38-2.97l0.63-0.15
			c0.29-0.07,0.47-0.35,0.43-0.65c-0.05-0.43,0.32-1.92,1.54-2.86c1.42-1.1,3.55-1.12,6.15-0.08c0.15,0.06,0.32,0.06,0.47-0.01
			c0.15-0.07,0.26-0.19,0.31-0.35c0.66-1.89,1.95-3.22,3.65-3.73c1.74-0.53,3.67-0.15,5.27,1.06c0.2,0.15,0.47,0.16,0.68,0.02
			c1.6-1.02,3.49-1.35,5.19-0.9c1.9,0.5,3.52,1.93,4.66,4.13c0.13,0.26,0.44,0.38,0.72,0.28c1.78-0.61,3.23-0.63,4.19-0.04
			c0.91,0.56,1.23,1.54,1.33,2.27c0.02,0.17,0.12,0.33,0.27,0.42c0.15,0.09,0.33,0.11,0.5,0.06c1.9-0.63,3.79-0.54,5.08,0.25
			c0.85,0.52,1.37,1.29,1.52,2.23c0.04,0.28,0.27,0.48,0.55,0.5c1.65,0.1,2.82,0.83,3.22,2.01c0.35,1.06-0.01,2.27-0.89,3.01
			c-1.25,1.05-3.23,0.98-5.43-0.19c-0.17-0.09-0.38-0.09-0.55-0.01c-1.71,0.88-3.33,0.94-4.82,0.18c-1.74-0.9-2.75-2.66-2.88-3.57
			c-0.02-0.16-0.11-0.3-0.24-0.39c-0.13-0.09-0.29-0.13-0.45-0.11c-1.22,0.2-5.27,0.54-6.1-3.34c-0.04-0.19-0.17-0.35-0.36-0.42
			c-0.18-0.07-0.39,0.07-0.55,0.17c-2.63,1.74-5.22,1.62-7.7-0.37c-0.24-0.19-0.58-0.22-0.79,0c-2.83,2.87-5.16,2.66-6.29,2.2
			c-0.27-0.11-0.57-0.02-0.72,0.22c-1.1,1.73-3.45,2.09-5.09,1.57c-0.19-0.06-0.41-0.08-0.56,0.05c-0.16,0.13-0.23,0.34-0.2,0.54
			C45.96,19.79,45.55,21.03,44.5,21.87 M45.87,22.41c0.27-0.35,0.56-0.97,0.71-1.43c0.15,0.09,0.27,0.17,0.34,0.22
			c0.05,0.03,0.98,0.66,1.54,0.91c2.45,1.16,3.99,1.44,5.67,2.79c-0.61,0.66-1.23,1.44-1.62,2.11
			C48.99,26.04,46.25,22.91,45.87,22.41 M47.69,30.23c-0.35-0.12-2.34-0.85-3.54-0.76c-2.44,0.18-5.55-0.59-7.09-1.2
			c-0.38-0.15-3.75-0.44-0.47-0.44c1.08,0,2.41-0.3,4.57,0.01c1.26,0.18,3.45,0.39,6.77,0.13c1.63-0.13,2.88,0.41,3.51,1.02
			c-0.17,0.49-0.37,1.66-0.42,2.05C50.15,31.06,48.57,30.55,47.69,30.23 M39.43,39.11c-1.49-1.06-2.49-3.02-3.52-2.68
			c-0.43,0.14-0.48,0.91,0.11,0.93c0.41,0.01,1.14,1.09,1.56,1.56c-0.11,0.57-1.58,1.18-3.13,0.25c-0.68-0.4-1.81-1.86-0.85-3.54
			c0.52-0.91,2-1.41,3.78-1.37c3.44,0.08,4.41,3.99,5.22,4.72C42.61,39.36,40.75,40.06,39.43,39.11 M44.42,39.06
			c-1.3-0.58-2.33-3.57-2.71-3.95c-0.15-0.15,2.3-1.05,4.79-0.83c4.24,0.36,4.25,3,5.3,4.31C52.18,39.07,48.36,40.16,44.42,39.06
			 M58.31,39.32c-0.4-0.27-1.6-1.78-2.03-2.3c-0.43-0.52-1.22-0.99-1.56-0.52c-0.2,0.29,0.01,0.61,0.37,0.82
			c0.39,0.23,1.4,1.54,1.54,1.79c-0.08,0.41-1.98,1.1-3.09-0.26c-0.58-0.71-1.69-2.79-2.36-3.68c2.42-0.86,5.29-1.18,7.33-0.22
			c1.95,0.92,2.29,3.04,3.07,4.07C61.77,39.71,59.5,40.13,58.31,39.32 M63.64,39.27c-1.3-0.58-2.33-3.57-2.71-3.96
			c-0.15-0.15,2.3-1.04,4.79-0.82c4.25,0.36,4.26,3,5.3,4.31C71.4,39.28,67.58,40.38,63.64,39.27 M84.86,34.35
			c4.24,0.36,5.25,3.16,4.83,4.06c-0.37,0.8-2.97,1.83-6.91,0.72c-1.3-0.58-2.33-3.57-2.71-3.96
			C79.91,35.02,82.36,34.14,84.86,34.35 M77.65,35.02c1.96,0.92,2.42,3.02,3.07,4.07c0.19,0.69-2.18,0.91-3.26,0.31
			c-0.42-0.24-1.6-1.78-2.03-2.31c-0.43-0.52-1.1-0.85-1.44-0.38c-0.2,0.29,0.04,0.63,0.41,0.83c0.46,0.25,1.23,1.39,1.37,1.64
			c-0.08,0.41-1.76,0.94-2.99-0.31c-0.63-0.63-1.76-2.84-2.2-3.71C73.01,34.31,75.62,34.06,77.65,35.02 M89.04,27.61
			c-1.23,0.25-2.75,0.6-4.56,1.3c-2.43,0.94-7.21,1.2-9.15,1.17c-1.87-0.03-2.5,0.8-3.15,0.68c-0.04-1.01-0.64-2.49-0.64-2.49
			c0.54-0.29,2.32-0.89,3.85-0.83c2.06,0.08,5.81,0.24,7.75-0.07c0.95-0.14,4.42-0.16,4.94-0.16c0.4,0,1.02,0.08,1.19,0.11
			C90.1,27.45,89.45,27.53,89.04,27.61"/>
	</g>
	<g class="st2">
		<defs>
			<rect id="SVGID_00000049907987859199943140000005736524920005496976_" x="22.91" y="-1.86" width="78.68" height="115.05"/>
		</defs>
		<clipPath id="SVGID_00000165927327934709230380000015141433813808404645_">
			<use xlink:href="#SVGID_00000049907987859199943140000005736524920005496976_"  style="overflow:visible;"/>
		</clipPath>
		<path style="clip-path:url(#SVGID_00000165927327934709230380000015141433813808404645_);fill:#231F20;" d="M39.34,19.37
			c-1.04,0-1.87,0.02-2.59,0.81c-0.78,0.84-0.59,1.3-0.73,1.46c-0.21,0.21-0.75-0.16-0.74-0.58c0.04-1.98,2.44-2.76,3.86-2.6
			C39.68,18.53,39.82,19.37,39.34,19.37"/>
		<path style="clip-path:url(#SVGID_00000165927327934709230380000015141433813808404645_);fill:#231F20;" d="M43.55,16.04
			c-1.51,0.17-1.96,0.9-2.22,1.75c-0.11,0.32-0.96,0.09-0.83-0.53c0.4-1.87,2.42-2.32,3.16-2.16C43.9,15.14,43.82,16.01,43.55,16.04
			"/>
		<path style="clip-path:url(#SVGID_00000165927327934709230380000015141433813808404645_);fill:#231F20;" d="M50.14,11.99
			c-2.69-1.05-4.03,0.98-4.47,2.59c-0.06,0.22-0.96,0.14-0.83-0.54c0.31-1.65,1.92-4.04,5.6-3.11
			C50.89,11.04,50.62,12.18,50.14,11.99"/>
		<path style="clip-path:url(#SVGID_00000165927327934709230380000015141433813808404645_);fill:#231F20;" d="M60.18,9.34
			c-2.47-1.7-4.42-0.33-5.45,0.89c-0.49,0.58-1.01-0.38-0.8-0.72c0.89-1.41,3.94-3.58,6.64-1.19C60.88,8.59,60.52,9.57,60.18,9.34"
			/>
		<path style="clip-path:url(#SVGID_00000165927327934709230380000015141433813808404645_);fill:#231F20;" d="M70.34,11.64
			c-0.21,0.15-0.33-0.18-0.46-0.41c-2.2-3.49-6.19-2.57-7.27-0.95c-0.22,0.33-0.8-0.56-0.51-1.02c0.97-1.58,6.03-3.04,8.63,1.41
			C71,11.16,70.63,11.44,70.34,11.64"/>
		<path style="clip-path:url(#SVGID_00000165927327934709230380000015141433813808404645_);fill:#231F20;" d="M76.55,13.84
			c-0.62-1.62-1.79-1.56-3.2-1.11c-0.65,0.21-0.49-0.86-0.28-0.93c1.34-0.47,3.63-0.69,4.24,1.56
			C77.49,13.98,76.72,14.28,76.55,13.84"/>
		<path style="clip-path:url(#SVGID_00000165927327934709230380000015141433813808404645_);fill:#231F20;" d="M83.81,17.33
			c-1.11-2.05-2.91-2.04-4.41-1.47c-0.34,0.13-0.64-0.72-0.11-1.02c1.45-0.83,4.41-0.68,5.33,1.96
			C84.78,17.24,84.18,18.01,83.81,17.33"/>
		<path style="clip-path:url(#SVGID_00000165927327934709230380000015141433813808404645_);fill:#231F20;" d="M88.43,20.55
			c-0.09,0.34-0.93,0.36-0.9,0.01c0.13-1.67-0.7-1.81-1.8-1.8c-0.42,0.01-0.39-0.89-0.07-0.96C87.15,17.46,88.94,18.55,88.43,20.55"
			/>
		<path style="clip-path:url(#SVGID_00000165927327934709230380000015141433813808404645_);fill:#231F20;" d="M59.5,29.21
			c-0.03,0.62-0.56,1.1-1.18,1.07c-0.62-0.03-1.1-0.56-1.07-1.18l0.01-0.12c-0.09-0.15-0.6-0.31-1.35,0.14
			c-0.38,0.23-0.8,0.07-0.14-0.5c0.7-0.6,1.35-0.95,1.94-1.02l0.02-0.01c0.98-0.07,2.25,0.13,2.85,0.38c0.25,0.1-0.01,1.31-0.07,1.3
			c-0.2-0.04-0.65-0.23-1.01-0.14"/>
		<path style="clip-path:url(#SVGID_00000165927327934709230380000015141433813808404645_);fill:#231F20;" d="M62.72,32.58
			c-0.2,0.57-2.23,0.76-2.6,0.01c-0.15-0.3-0.35-1.06-0.07-0.9c0.45,0.26,2.08,0.08,2.39,0c0.28-0.07,0.1-0.45,0.27-0.4
			C62.9,31.34,62.9,32.04,62.72,32.58"/>
		<path style="clip-path:url(#SVGID_00000165927327934709230380000015141433813808404645_);fill:#231F20;" d="M67.49,29.4
			c-0.51-0.42-1.18-0.6-1.43-0.42l0.01,0.09c0.05,0.62-0.4,1.16-1.02,1.22c-0.62,0.05-1.17-0.41-1.22-1.02v-0.05
			c-0.4-0.13-1.05,0.09-1.13,0.06c-0.05-0.02-0.33-1.17,0.03-1.31c0.97-0.4,4.1-0.59,5,1.16C67.83,29.34,67.77,29.62,67.49,29.4"/>
		<path style="clip-path:url(#SVGID_00000165927327934709230380000015141433813808404645_);fill:#231F20;" d="M66.69,46.23h23.25
			V67.3H66.69V46.23z M56.55,67.3H33.3V46.23h23.25V67.3z M56.55,104.95c-5.98-1.75-11.79-4.11-15.5-7.58
			c-1.32-1.24-2.44-2.57-3.39-4h5.93v0.83h2.76v-0.83h6.66V82.12h-1.42v-2.05c-1.45,0.35-3.8-0.44-4.85-0.44
			c-1.16,0-1.76,0.51-1.76,0.51s-0.6-0.51-1.77-0.51c-1.05,0-3.41,0.79-4.85,0.44v2.05h-1.42v10.06c-2.27-3.97-3.36-8.72-3.59-14.54
			l-0.05-0.89h23.25V104.95z M39.55,91.06v-9.69c0.83,0.14,2.24-0.42,3.69-0.47c0.78-0.03,1,0.42,1,0.42v9.77
			c0,0-0.84-0.58-2.72-0.05C40.07,91.47,39.55,91.06,39.55,91.06 M45.71,91.1v-9.77c0,0,0.22-0.45,1-0.42
			c1.45,0.05,2.86,0.61,3.69,0.47v9.69c0,0-0.52,0.4-1.98-0.01C46.55,90.51,45.71,91.1,45.71,91.1 M65.47,105.34l-3.85,0.98
			l-3.86-0.99V75.45H33.3v-6.86h24.46V46.23h7.71v22.36h24.46v6.86H65.47V105.34z M86.46,92.29V82.12h-1.42v-2.05
			c-1.45,0.35-3.8-0.44-4.85-0.44c-1.16,0-1.76,0.51-1.76,0.51s-0.59-0.51-1.77-0.51c-1.05,0-3.41,0.79-4.85,0.44v2.05h-1.42v11.25
			h6.66v0.83h2.76v-0.83h5.99c-0.97,1.45-2.12,2.78-3.51,4.05c-3.93,3.59-9.74,5.86-15.59,7.56V76.74h23.24v0.95
			C89.58,84.06,88.6,88.59,86.46,92.29 M83.84,81.37v9.69c0,0-0.52,0.4-1.97-0.01c-1.88-0.54-2.72,0.05-2.72,0.05v-9.77
			c0,0,0.22-0.45,1-0.42C81.6,80.95,83.01,81.52,83.84,81.37 M77.68,81.32v9.77c0,0-0.84-0.58-2.72-0.05
			c-1.45,0.42-1.97,0.01-1.97,0.01v-9.69c0.83,0.14,2.24-0.42,3.69-0.47C77.46,80.88,77.68,81.32,77.68,81.32 M31.87,44.81v31.18
			c0,10.31,2.58,17.44,8.08,22.46c5.47,4.98,13.66,7.5,21.67,9.4c8.22-1.95,16.14-4.37,21.66-9.4c5.51-5.01,8.07-12.15,8.07-22.46
			V44.81H31.87z"/>
		<path style="clip-path:url(#SVGID_00000165927327934709230380000015141433813808404645_);fill:#231F20;" d="M51.59,51.75V49.7
			c-1.44,0.34-3.8-0.44-4.85-0.44c-1.16,0-1.76,0.51-1.76,0.51s-0.6-0.51-1.77-0.51c-1.05,0-3.41,0.79-4.85,0.44v2.05h-1.42V63h6.66
			v0.84h2.76V63h6.66V51.75H51.59z M44.24,60.73c0,0-0.84-0.58-2.72-0.05c-1.45,0.41-1.98,0.01-1.98,0.01V51
			c0.83,0.14,2.25-0.43,3.7-0.47c0.78-0.02,1,0.42,1,0.42V60.73z M50.4,60.69c0,0-0.52,0.4-1.98-0.01
			c-1.88-0.53-2.72,0.05-2.72,0.05v-9.77c0,0,0.22-0.44,1-0.42c1.45,0.04,2.87,0.61,3.7,0.47V60.69z"/>
		<path style="clip-path:url(#SVGID_00000165927327934709230380000015141433813808404645_);fill:#231F20;" d="M85.04,51.75V49.7
			c-1.45,0.34-3.8-0.44-4.85-0.44c-1.16,0-1.77,0.51-1.77,0.51s-0.59-0.51-1.77-0.51c-1.05,0-3.4,0.79-4.85,0.44v2.05h-1.42V63h6.66
			v0.84h2.76V63h6.65V51.75H85.04z M77.5,60.73c0,0-0.84-0.58-2.71-0.05c-1.45,0.41-1.98,0.01-1.98,0.01V51
			c0.83,0.14,2.25-0.43,3.69-0.47c0.78-0.02,1,0.42,1,0.42V60.73z M83.67,60.69c0,0-0.52,0.4-1.98-0.01
			c-1.88-0.53-2.72,0.05-2.72,0.05v-9.77c0,0,0.22-0.44,1-0.42c1.45,0.04,2.86,0.61,3.69,0.47V60.69z"/>
		<polyline style="clip-path:url(#SVGID_00000165927327934709230380000015141433813808404645_);fill:#E01F26;" points="
			57.76,105.32 61.62,106.32 65.47,105.34 65.47,75.45 89.93,75.45 89.93,68.6 65.47,68.6 65.47,46.23 57.76,46.23 57.76,68.6 
			33.29,68.6 33.29,75.45 57.76,75.45 		"/>
		<path style="clip-path:url(#SVGID_00000165927327934709230380000015141433813808404645_);fill:#E01F26;" d="M46.5,34.28
			c-2.49-0.22-4.94,0.68-4.79,0.83c0.38,0.38,1.41,3.37,2.71,3.95c3.94,1.11,7.76,0.01,7.38-0.47
			C50.76,37.27,50.75,34.64,46.5,34.28"/>
		<path style="clip-path:url(#SVGID_00000165927327934709230380000015141433813808404645_);fill:#E01F26;" d="M65.72,34.49
			c-2.49-0.21-4.95,0.67-4.79,0.82c0.38,0.38,1.41,3.38,2.71,3.96c3.95,1.11,7.77,0.01,7.38-0.47
			C69.98,37.49,69.96,34.85,65.72,34.49"/>
		<path style="clip-path:url(#SVGID_00000165927327934709230380000015141433813808404645_);fill:#E01F26;" d="M82.78,39.13
			c3.94,1.11,6.54,0.08,6.91-0.72c0.42-0.91-0.58-3.7-4.83-4.06c-2.49-0.21-4.94,0.67-4.79,0.82
			C80.45,35.56,81.48,38.55,82.78,39.13"/>
	</g>
</g>
<g id="Layer_2">
	<path class="st8" d="M105.86,138.09l1.72-4.2l1.72,4.2H105.86z M100.75,143.5h2.9l1.18-2.9h5.47l1.19,2.9h2.97l-5.54-13.03h-2.62
		L100.75,143.5z M95.78,143.5h2.85v-12.94h-2.85V143.5z M90.47,139.56v0.04c0,0.96-0.76,1.41-2.02,1.41h-3.38v-2.85h3.29
		C89.83,138.16,90.47,138.7,90.47,139.56 M89.75,134.43c0,0.96-0.8,1.37-2.05,1.37h-2.62v-2.74h2.81c1.2,0,1.87,0.48,1.87,1.33
		V134.43z M82.3,143.5h6.16c2.92,0,4.84-1.18,4.84-3.55v-0.04c0-1.74-0.92-2.61-2.42-3.18c0.92-0.52,1.7-1.33,1.7-2.79v-0.04
		c0-0.89-0.3-1.61-0.89-2.2c-0.74-0.74-1.9-1.15-3.38-1.15H82.3V143.5z M66.25,143.5h2.79v-8.39l3.61,5.47h0.07l3.64-5.53v8.45h2.83
		v-12.94h-3.07l-3.4,5.47l-3.4-5.47h-3.06V143.5z M57.67,143.7c3.48,0,5.68-1.92,5.68-5.84v-7.31H60.5v7.42
		c0,2.05-1.06,3.11-2.8,3.11c-1.74,0-2.79-1.09-2.79-3.2v-7.32h-2.84v7.4C52.07,141.77,54.2,143.7,57.67,143.7 M41.2,143.5h9.3
		v-2.59h-6.45v-10.35H41.2V143.5z M31.81,141.1c-2.3,0-3.92-1.85-3.92-4.07V137c0-2.22,1.59-4.03,3.88-4.03
		c2.29,0,3.92,1.85,3.92,4.07v0.04C35.69,139.29,34.1,141.1,31.81,141.1 M31.77,143.72c3.99,0,6.89-3.01,6.89-6.69V137
		c0-3.68-2.86-6.66-6.86-6.66c-4,0-6.9,3.01-6.9,6.69v0.04C24.91,140.75,27.78,143.72,31.77,143.72 M18.27,143.72
		c2.5,0,3.98-0.89,5.31-2.31l-1.81-1.83c-1.02,0.92-1.92,1.52-3.4,1.52c-2.22,0-3.75-1.85-3.75-4.07V137c0-2.22,1.57-4.03,3.75-4.03
		c1.3,0,2.31,0.55,3.31,1.46l1.81-2.09c-1.2-1.18-2.66-2-5.1-2c-3.98,0-6.74,3.01-6.74,6.69v0.04
		C11.64,140.79,14.46,143.72,18.27,143.72"/>
	<g>
		<defs>
			<rect id="SVGID_00000078006620404868172640000006301912363602362534_" x="3.45" y="9.57" width="118.15" height="102.47"/>
		</defs>
		<clipPath id="SVGID_00000152235936255978781390000007939452973864267423_">
			<use xlink:href="#SVGID_00000078006620404868172640000006301912363602362534_"  style="overflow:visible;"/>
		</clipPath>
		<path style="clip-path:url(#SVGID_00000152235936255978781390000007939452973864267423_);fill:#0F5BA7;" d="M20.63,63.36
			c-0.16-0.01-0.29,0.02-0.38,0.09c-0.34,0.3,1.71,4.01,3.08,6.63c1.42-1.81,5.51-2.99,6.14-3.16c-1.43,0.14-6.6-2.62-7.17-2.96
			C21.85,63.7,21.11,63.38,20.63,63.36 M104.42,63.36c-0.48,0.02-1.21,0.33-1.67,0.6c-0.57,0.34-5.75,3.1-7.17,2.96
			c0.63,0.17,4.71,1.35,6.14,3.16c1.37-2.62,3.41-6.33,3.08-6.63C104.71,63.38,104.59,63.36,104.42,63.36"/>
		<path style="clip-path:url(#SVGID_00000152235936255978781390000007939452973864267423_);fill:#AFE1F9;" d="M27.48,9.84
			l-0.23,21.92c-0.29,10.76,4.26,22.17,4.26,22.17c8.2,21.73,28.77,33.01,30.74,34.05v0.2c0,0,0.16-0.09,0.19-0.1
			c0.03,0.01,0.19,0.1,0.19,0.1v-0.2c1.97-1.04,22.53-12.32,30.74-34.05c0,0,4.55-11.41,4.26-22.17L97.39,9.84H62.62h-0.38H27.48z
			 M21.58,53.97c-0.3-0.01-0.45,0.03-0.45,0.03c-2.43,0-9.15,4.98-9.15,4.98c-5.55,2.63-6.3,0.39-8,3.81
			c-1.47,3.67,2.62,5.66,2.62,5.66s2.82-2.64,5.79-4.05c0.98,0.33,2.78,2.3,3.09,2.83l-4.53,2.13
			c7.64,21.01,21.84,31.08,35.37,34.79v0.01c3.25,1.01,4.16,1.09,9.4,2.39c0.32,0.1,0.55,0.18,0.12,1.09
			c-0.94,1.71,0.55,2.39,1.51,2.98c1.36,0.74,2.96,1.19,4.65,1.22v0.01c0.01,0,0.03-0.01,0.04-0.01c0.01,0,0.03,0.01,0.04,0.01
			v-0.01h0.89v0.01c0.01,0,0.03-0.01,0.04-0.01c0.01,0,0.03,0.01,0.04,0.01v-0.01c1.69-0.03,3.3-0.48,4.65-1.22
			c0.96-0.59,2.45-1.27,1.51-2.98c-0.44-0.91-0.2-0.99,0.12-1.09c5.23-1.3,6.14-1.38,9.39-2.39v-0.01
			c13.53-3.71,27.72-13.78,35.37-34.79l-4.53-2.13c0.31-0.53,2.11-2.5,3.09-2.83c2.96,1.41,5.79,4.05,5.79,4.05s4.09-1.99,2.62-5.66
			c-1.71-3.42-2.45-1.17-8.01-3.81c0,0-6.72-4.98-9.15-4.98c0,0-2.45-0.61-6.78,3.72c-1.9,1.89-4.41,4.76-3.82,7.64
			c0.85,3.91,9.06-1.18,9.06-1.18c3.9-2.34,1.89,0.77,1.89,0.77c-7.94,17.58-18.92,25.79-30.21,28.33
			c-3.57,0.88-4.98,1.13-7.92,2.06c-1.42,0.48-1.29,1.5-0.46,2.33c0.44,0.52,1.2,0.88,0.63,1.61c-0.88,0.88-2.45,1.25-3.61,1.25
			c-1.22,0-3.07-0.38-3.95-1.25c-0.57-0.73,0.19-1.09,0.63-1.61c0.83-0.83,0.96-1.84-0.45-2.33c-2.94-0.93-4.35-1.17-7.92-2.06
			c-11.28-2.54-22.25-10.74-30.2-28.33c0,0-2.02-3.11,1.88-0.77c0,0,8.21,5.09,9.06,1.18c0.58-2.88-1.93-5.75-3.82-7.64
			C24.66,54.48,22.47,54,21.58,53.97"/>
	</g>
	<g>
		<defs>
			<rect id="SVGID_00000091695557882915644320000000855055282971968436_" x="-1.31" y="4.82" width="127.65" height="111.96"/>
		</defs>
		<clipPath id="SVGID_00000075143514871369344200000006596527307580588700_">
			<use xlink:href="#SVGID_00000091695557882915644320000000855055282971968436_"  style="overflow:visible;"/>
		</clipPath>
		<path style="clip-path:url(#SVGID_00000075143514871369344200000006596527307580588700_);fill:#0F5BA7;" d="M27.09,10.44v26.44
			c0.93,11.78,5.37,20.8,5.37,20.8l29.83-29.85c0,0,22.68,22.6,29.8,29.92c6.2-15.42,5.57-25.3,5.57-25.3l-0.26-22.03H27.09z
			 M62.63,47.67L40.77,69.88c0,0,8.68,11.51,21.85,18.27c4.08-2.08,14.49-9.09,22.04-18.27C75.98,60.86,62.63,47.67,62.63,47.67"/>
	</g>
	<g>
		<defs>
			<rect id="SVGID_00000048464620457924506710000007295499024436909714_" x="3.45" y="9.57" width="118.15" height="102.47"/>
		</defs>
		<clipPath id="SVGID_00000124862995241389888200000010829316229178383001_">
			<use xlink:href="#SVGID_00000048464620457924506710000007295499024436909714_"  style="overflow:visible;"/>
		</clipPath>
		
			<path style="clip-path:url(#SVGID_00000124862995241389888200000010829316229178383001_);fill:none;stroke:#020202;stroke-width:0.6441;" d="
			M27.09,10.44v26.44c0.93,11.78,5.37,20.8,5.37,20.8l29.83-29.85c0,0,22.68,22.6,29.8,29.92c6.2-15.42,5.57-25.3,5.57-25.3
			l-0.26-22.03H27.09z M62.63,47.67L40.77,69.88c0,0,8.68,11.51,21.85,18.27c4.08-2.08,14.49-9.09,22.04-18.27
			C75.98,60.86,62.63,47.67,62.63,47.67z"/>
		
			<path style="clip-path:url(#SVGID_00000124862995241389888200000010829316229178383001_);fill:none;stroke:#020202;stroke-width:0.3445;" d="
			M17.11,59.89c0,0,1.49-0.66,3.24-2.4c2.73,3.28-5.66,5.97-5.66,5.97s-1.19,0.33-2.4,0.98 M20.03,54.2c0,0-4.5,1.52-3.24,5.59
			c1.53,3.1,5.49-0.37,3.55-2.31 M15.38,67.27c0,0,1.18-0.4,2.11-1.33c0.84-0.84,1.74-3.49,3.6-2.54 M30.34,66.76
			c0,0-1.78,0.28-3.76,1.19c-1.98,0.91-3.23,2.15-3.23,2.15 M108.03,59.89c0,0-1.49-0.66-3.24-2.4c-2.73,3.28,5.66,5.97,5.66,5.97
			s1.38,0.29,2.59,1.13 M105.17,54.27c0,0,4.43,1.45,3.18,5.52c-1.53,3.1-5.49-0.37-3.55-2.31 M109.87,67.37
			c0,0-1.29-0.36-2.22-1.43c-0.78-0.9-1.7-3.53-3.56-2.58 M94.95,66.81c0,0,1.63,0.24,3.61,1.14c1.98,0.91,3.23,2.15,3.23,2.15
			 M58.53,98.75l-2.48,8.21 M66.46,98.54l2.55,8.55 M121.07,62.79c-1.7-3.42-2.45-1.17-8-3.81c0,0-6.72-4.98-9.15-4.98
			c0,0-2.45-0.61-6.78,3.72c-1.89,1.89-4.4,4.76-3.82,7.64c0.85,3.91,9.06-1.18,9.06-1.18c3.89-2.34,1.88,0.77,1.88,0.77
			c-7.94,17.58-18.92,25.79-30.2,28.32c-3.57,0.88-4.98,1.13-7.92,2.06c-1.42,0.48-1.29,1.5-0.45,2.33c0.44,0.52,1.2,0.88,0.63,1.61
			c-0.88,0.88-2.45,1.26-3.62,1.26c-1.22,0-3.07-0.38-3.95-1.26c-0.57-0.73,0.18-1.1,0.62-1.61c0.83-0.83,0.96-1.85-0.45-2.33
			c-2.94-0.93-4.35-1.18-7.92-2.06c-11.27-2.53-22.25-10.74-30.2-28.32c0,0-2.02-3.11,1.88-0.77c0,0,8.21,5.08,9.06,1.18
			c0.58-2.88-1.93-5.75-3.82-7.64c-4.33-4.33-6.78-3.72-6.78-3.72c-2.43,0-9.15,4.98-9.15,4.98c-5.55,2.63-6.3,0.39-8,3.81
			c-1.47,3.67,2.62,5.66,2.62,5.66s2.82-2.64,5.79-4.05c0.98,0.33,2.78,2.3,3.09,2.83l-4.53,2.13
			c7.64,21.01,21.84,31.08,35.37,34.79v0.01c3.25,1.01,4.16,1.09,9.39,2.39c0.32,0.1,0.56,0.18,0.12,1.09
			c-0.94,1.7,0.55,2.39,1.51,2.98c1.36,0.73,2.96,1.19,4.65,1.21v0.01c0.02,0,0.03,0,0.04,0c0.02,0,0.03,0,0.05,0v-0.01
			c0.09,0,0.78,0,0.89,0v0.01c0.01,0,0.03,0,0.04,0c0.02,0,0.03,0,0.04,0v-0.01c1.69-0.03,3.3-0.48,4.65-1.21
			c0.96-0.59,2.45-1.28,1.51-2.98c-0.44-0.91-0.2-0.99,0.12-1.09c5.23-1.3,6.14-1.38,9.39-2.39v-0.01
			c13.53-3.7,27.72-13.77,35.37-34.79l-4.53-2.13c0.32-0.53,2.11-2.5,3.09-2.83c2.96,1.41,5.79,4.05,5.79,4.05
			S122.54,66.46,121.07,62.79z"/>
		
			<path style="clip-path:url(#SVGID_00000124862995241389888200000010829316229178383001_);fill:none;stroke:#020202;stroke-width:0.7533;stroke-miterlimit:8;" d="
			M62.43,10.02H27.18l-0.23,21.99c-0.3,10.79,4.27,22.24,4.27,22.24C39.86,77.14,62.43,88.6,62.43,88.6 M62.43,10.02h35.26L97.91,32
			c0.29,10.8-4.27,22.24-4.27,22.24C85,77.14,62.43,88.6,62.43,88.6"/>
	</g>
	<g>
		<defs>
			<rect id="SVGID_00000089541176026909376800000003522503363436977288_" x="-1.31" y="4.82" width="127.65" height="111.96"/>
		</defs>
		<clipPath id="SVGID_00000167374517400930016840000007442120206753224109_">
			<use xlink:href="#SVGID_00000089541176026909376800000003522503363436977288_"  style="overflow:visible;"/>
		</clipPath>
		<path style="clip-path:url(#SVGID_00000167374517400930016840000007442120206753224109_);fill:#FFFFFF;" d="M81.41,14.64
			c-0.12,0-0.25,0.02-0.29,0.05c-0.08,0.06-0.01,0.92-0.06,0.98c-0.05,0.06-0.94-0.04-1.01,0.05c-0.07,0.09-0.09,1.04,0.02,1.13
			c0.11,0.1,0.9-0.05,1,0.03c0.04,0.04,0.08,0.95-0.01,1.05c-1.24,0.68-1.38,2.26-0.32,3.06c-0.22,0.23-0.47,0.61-0.66,0.58
			c-2.3-0.4-4.34-1.67-6.71-1.48c-1.33,0.1-2.41,1.04-2.64,2.38c-0.41,2.42,1.32,4.27,2.16,6.32c0.27,0.65,0.5,1.52,0.46,2.27
			c0,0,8.18,0,8.29,0h0c0.11,0,8.29,0,8.29,0c-0.04-0.75,0.19-1.62,0.46-2.27c0.84-2.05,2.58-3.91,2.16-6.32
			c-0.23-1.34-1.32-2.28-2.64-2.38c-2.37-0.19-4.42,1.08-6.72,1.48c-0.18,0.03-0.43-0.36-0.66-0.58c1.07-0.8,0.92-2.38-0.31-3.06
			c-0.09-0.1-0.06-1-0.01-1.05c0.1-0.08,0.89,0.07,1-0.03c0.11-0.1,0.09-1.04,0.01-1.13c-0.07-0.09-0.96,0.01-1.01-0.05
			c-0.05-0.06,0.02-0.91-0.06-0.98c-0.08-0.07-0.52-0.05-0.53-0.05C81.65,14.64,81.53,14.63,81.41,14.64 M42,14.87
			c-0.01,0-0.45-0.02-0.53,0.05c-0.08,0.07-0.01,0.92-0.06,0.98c-0.05,0.06-0.94-0.04-1.01,0.05c-0.07,0.09-0.09,1.04,0.02,1.13
			c0.11,0.1,0.9-0.05,1,0.03c0.05,0.04,0.08,0.95,0,1.05c-1.24,0.68-1.38,2.26-0.31,3.06c-0.23,0.23-0.47,0.61-0.66,0.58
			c-2.3-0.41-4.35-1.67-6.72-1.49c-1.33,0.11-2.41,1.04-2.64,2.38c-0.42,2.42,1.32,4.27,2.16,6.32c0.27,0.65,0.5,1.52,0.46,2.27
			c0,0,8.18,0,8.29,0h0h0c0.11,0,8.29,0,8.29,0c-0.04-0.75,0.19-1.62,0.46-2.27c0.84-2.05,2.57-3.91,2.16-6.32
			c-0.23-1.34-1.31-2.28-2.64-2.38c-2.37-0.19-4.42,1.08-6.72,1.49c-0.18,0.03-0.43-0.36-0.66-0.58c1.07-0.8,0.92-2.38-0.31-3.06
			c-0.08-0.09-0.05-1,0-1.05c0.1-0.08,0.89,0.07,1-0.03c0.11-0.1,0.09-1.04,0.02-1.13c-0.07-0.09-0.96,0.01-1.01-0.05
			c-0.05-0.06,0.03-0.91-0.06-0.98C42.45,14.85,42.01,14.87,42,14.87 M74.29,21.33c0.58-0.01,1.16,0.13,1.82,0.33
			c1.11,0.33,1.99,0.78,3.4,1.22c0.32,0.1-0.26,0.09,0.57,1.78c0.38,0.78,0.65,2.31,0.5,3.16c-0.22,1.21-0.89,1.98-1.45,1.99
			c-0.36,0-0.66-0.13-0.92-0.37c-0.37-0.32-0.68-0.86-0.57-1.17c0.08-0.11,1.08,0.04,1.15-0.05c0.07-0.1-0.12-0.87-0.24-0.97
			c-0.11-0.1-1.01,0.03-1.13-0.06c-0.12-0.1-0.23-1.06-0.36-1.12c0,0-0.94-0.14-1.02-0.01c-0.07,0.13,0.32,0.94,0.26,1.07
			c-0.07,0.14-1.33-0.12-1.35,0.02c-0.02,0.14,0.07,0.85,0.19,0.95c0.12,0.1,1.29,0.11,1.29,0.11c0.25,0.19,0.31,0.56,0.31,0.95
			c0.01,0.49-0.38,0.75-0.99,0.57c-1.14-0.32-2.42-2.83-3.26-4.53c-0.61-1.26-0.88-3.04,0.73-3.66
			C73.59,21.4,73.93,21.34,74.29,21.33 M89.02,21.33c0.35,0.01,0.7,0.07,1.07,0.21c1.61,0.61,1.33,2.4,0.72,3.66
			c-0.83,1.71-2.13,4.22-3.26,4.53c-0.6,0.17-0.99-0.08-0.99-0.57c0-0.39,0.07-0.76,0.31-0.95c0,0,1.17-0.01,1.3-0.11
			c0.12-0.1,0.21-0.81,0.19-0.95c-0.02-0.14-1.28,0.12-1.35-0.02c-0.07-0.13,0.32-0.94,0.26-1.07c-0.07-0.14-1.02,0.01-1.02,0.01
			c-0.12,0.06-0.24,1.02-0.35,1.12c-0.12,0.1-1.02-0.04-1.13,0.06c-0.12,0.1-0.31,0.87-0.24,0.97c0.07,0.1,1.06-0.05,1.14,0.05
			c0.1,0.31-0.2,0.85-0.57,1.17c-0.27,0.24-0.56,0.37-0.93,0.37c-0.56,0-1.23-0.77-1.45-1.99c-0.15-0.85,0.11-2.38,0.49-3.16
			c0.84-1.69,0.26-1.68,0.58-1.78c1.4-0.45,2.29-0.89,3.39-1.22C87.85,21.46,88.43,21.32,89.02,21.33 M34.63,21.56
			c0.58-0.01,1.16,0.13,1.82,0.33c1.11,0.33,1.99,0.78,3.39,1.22c0.33,0.1-0.26,0.09,0.58,1.78c0.38,0.77,0.65,2.31,0.5,3.16
			c-0.21,1.21-0.89,1.98-1.45,1.99c-0.37,0-0.66-0.13-0.93-0.37c-0.37-0.32-0.67-0.85-0.57-1.17c0.08-0.1,1.08,0.05,1.15-0.05
			c0.07-0.1-0.12-0.87-0.23-0.97c-0.11-0.1-1.01,0.04-1.13-0.06c-0.12-0.1-0.23-1.06-0.35-1.12c0,0-0.95-0.14-1.02-0.01
			c-0.07,0.13,0.32,0.94,0.26,1.07c-0.07,0.14-1.32-0.12-1.35,0.02c-0.02,0.14,0.07,0.85,0.19,0.95c0.12,0.1,1.29,0.11,1.29,0.11
			c0.24,0.19,0.31,0.56,0.31,0.95c0,0.49-0.38,0.75-0.99,0.57c-1.14-0.32-2.42-2.83-3.26-4.53c-0.61-1.26-0.89-3.04,0.73-3.66
			C33.94,21.63,34.28,21.57,34.63,21.56 M49.37,21.56c0.35,0.01,0.7,0.07,1.07,0.21c1.61,0.61,1.34,2.4,0.73,3.66
			c-0.84,1.71-2.12,4.22-3.26,4.53c-0.61,0.17-0.99-0.08-0.99-0.57c0-0.39,0.06-0.76,0.31-0.95c0,0,1.17-0.01,1.29-0.11
			c0.12-0.1,0.22-0.81,0.19-0.95c-0.02-0.14-1.28,0.11-1.35-0.02c-0.07-0.13,0.33-0.94,0.26-1.07c-0.07-0.14-1.02,0.01-1.02,0.01
			c-0.12,0.06-0.23,1.02-0.35,1.12c-0.12,0.1-1.02-0.03-1.13,0.06c-0.11,0.1-0.3,0.88-0.23,0.97c0.07,0.1,1.07-0.05,1.15,0.05
			c0.1,0.32-0.2,0.85-0.57,1.17c-0.27,0.24-0.56,0.37-0.93,0.37c-0.56,0-1.23-0.77-1.45-1.99c-0.15-0.85,0.11-2.38,0.49-3.16
			c0.84-1.7,0.26-1.68,0.58-1.78c1.4-0.45,2.29-0.89,3.39-1.22C48.2,21.69,48.79,21.55,49.37,21.56 M73.17,32.18v1.43h8.48h8.48
			v-1.43h-8.48H73.17z M33.52,32.41v1.42H42h8.48v-1.42H42H33.52z M62.96,57.29c-0.01,0-0.45-0.01-0.53,0.05
			c-0.08,0.07-0.01,0.92-0.06,0.98c-0.05,0.06-0.94-0.04-1.01,0.05c-0.07,0.09-0.09,1.04,0.02,1.13c0.11,0.1,0.9-0.05,1,0.03
			c0.05,0.04,0.08,0.95,0,1.05c-1.24,0.68-1.38,2.26-0.31,3.06c-0.22,0.23-0.47,0.61-0.66,0.58c-2.3-0.4-4.35-1.67-6.72-1.48
			c-1.33,0.11-2.41,1.04-2.64,2.38c-0.41,2.42,1.32,4.27,2.16,6.32c0.27,0.65,0.5,1.52,0.46,2.27h8.29h0h0h8.29
			c-0.04-0.75,0.19-1.62,0.46-2.27c0.84-2.05,2.58-3.91,2.16-6.32c-0.24-1.34-1.32-2.28-2.64-2.38c-2.37-0.19-4.42,1.08-6.71,1.48
			c-0.18,0.03-0.43-0.36-0.66-0.58c1.07-0.8,0.92-2.38-0.31-3.06c-0.08-0.1-0.05-1-0.01-1.05c0.1-0.08,0.89,0.07,1-0.03
			c0.11-0.1,0.09-1.04,0.02-1.13c-0.07-0.09-0.96,0.01-1.01-0.05c-0.05-0.06,0.02-0.91-0.06-0.98
			C63.41,57.28,62.97,57.29,62.96,57.29 M55.6,63.99c0.58-0.01,1.16,0.13,1.82,0.33c1.11,0.33,1.99,0.78,3.4,1.22
			c0.33,0.1-0.26,0.09,0.57,1.78c0.39,0.78,0.65,2.31,0.5,3.16c-0.21,1.21-0.89,1.98-1.45,1.99c-0.37,0-0.66-0.13-0.93-0.37
			c-0.37-0.32-0.67-0.86-0.57-1.17c0.08-0.11,1.08,0.05,1.15-0.05c0.07-0.1-0.12-0.87-0.24-0.97c-0.11-0.1-1.01,0.03-1.13-0.06
			c-0.12-0.1-0.23-1.06-0.35-1.12c0,0-0.95-0.14-1.02,0c-0.07,0.13,0.32,0.93,0.26,1.07c-0.07,0.14-1.33-0.12-1.35,0.02
			c-0.02,0.14,0.07,0.85,0.19,0.95c0.12,0.1,1.29,0.11,1.29,0.11c0.25,0.19,0.31,0.57,0.31,0.96c0,0.49-0.38,0.74-0.99,0.57
			c-1.14-0.32-2.43-2.83-3.26-4.54c-0.61-1.25-0.89-3.04,0.73-3.66C54.9,64.06,55.24,63.99,55.6,63.99 M70.33,63.99
			c0.35,0.01,0.7,0.07,1.07,0.21c1.61,0.61,1.34,2.4,0.73,3.66c-0.84,1.71-2.13,4.22-3.26,4.54c-0.61,0.17-0.99-0.09-0.99-0.57
			c0-0.39,0.06-0.77,0.31-0.96c0,0,1.17-0.01,1.29-0.11c0.12-0.1,0.22-0.81,0.19-0.95c-0.02-0.14-1.28,0.12-1.35-0.02
			c-0.06-0.14,0.33-0.94,0.26-1.07c-0.07-0.14-1.02,0-1.02,0c-0.12,0.06-0.23,1.02-0.36,1.12c-0.12,0.1-1.02-0.04-1.13,0.06
			c-0.11,0.1-0.3,0.88-0.23,0.97c0.07,0.1,1.06-0.06,1.14,0.05c0.1,0.31-0.2,0.85-0.57,1.17c-0.27,0.24-0.56,0.37-0.92,0.37
			c-0.56,0-1.24-0.77-1.45-1.99c-0.15-0.85,0.11-2.38,0.5-3.16c0.83-1.69,0.25-1.68,0.58-1.78c1.4-0.45,2.28-0.89,3.39-1.22
			C69.16,64.12,69.75,63.97,70.33,63.99 M54.48,74.84v1.42h8.48h8.48v-1.42h-8.48H54.48z"/>
		<path style="clip-path:url(#SVGID_00000167374517400930016840000007442120206753224109_);fill:#020202;" d="M106.63,69.63
			c-0.02-0.01-0.06-0.01-0.08,0c-0.07,0.18-0.12,0.32-0.22,0.53c-0.09,0.19-0.17,0.38-0.27,0.57c-0.01,0.06,0.08,0.1,0.14,0.07
			l0.06-0.1c0.08-0.12,0.14-0.18,0.24-0.2c0.18-0.02,0.62,0.17,0.97,0.33l0.93,0.41c0.07,0.04,0.1,0.05,0.1,0.07
			c-0.05,0.04-0.76,0.27-1.07,0.38l-0.74,0.27c-0.26,0.09-1.11,0.36-1.35,0.36c-0.04,0.12-0.09,0.24-0.14,0.35
			c-0.06,0.13-0.18,0.4-0.28,0.58c-0.01,0.06,0.09,0.11,0.13,0.09l0.05-0.07c0.04-0.07,0.15-0.18,0.22-0.22
			c0.21-0.11,0.28-0.07,0.65,0.1l1.13,0.51c0.37,0.16,0.78,0.35,0.9,0.48c0.06,0.07,0.04,0.17,0.01,0.27l-0.02,0.12
			c0.01,0.06,0.1,0.09,0.14,0.06c0.07-0.18,0.12-0.32,0.22-0.53c0.09-0.19,0.18-0.38,0.27-0.56c0.01-0.06-0.08-0.1-0.13-0.07
			l-0.06,0.1c-0.07,0.12-0.14,0.19-0.23,0.2c-0.18,0.02-0.62-0.17-0.97-0.33l-0.93-0.42c-0.25-0.11-0.3-0.14-0.3-0.15
			c0.11-0.05,0.36-0.13,0.85-0.3l1.79-0.59c0.55-0.18,0.78-0.26,0.91-0.29c0.03-0.06,0.04-0.14,0.01-0.2
			c-0.11-0.03-0.7-0.3-0.84-0.36l-1.13-0.51c-0.38-0.17-0.79-0.35-0.9-0.49c-0.06-0.07-0.04-0.16-0.01-0.26l0.03-0.12
			C106.68,69.66,106.66,69.64,106.63,69.63 M20.49,72.87c-0.03,0.01-0.05,0.04-0.06,0.06l0.04,0.12c0.09,0.24,0.1,0.3-0.38,0.55
			l-1.72,0.9c-0.49,0.25-0.52,0.22-0.68,0l-0.07-0.1c-0.05-0.02-0.13,0.03-0.13,0.07c0.12,0.22,0.25,0.45,0.36,0.66
			c0.11,0.22,0.23,0.44,0.33,0.67c0.04,0.03,0.12-0.01,0.13-0.06l-0.04-0.12c-0.09-0.25-0.1-0.3,0.39-0.55l1.71-0.9
			c0.49-0.25,0.53-0.22,0.68,0l0.07,0.1c0.05,0.02,0.13-0.03,0.13-0.08c-0.12-0.21-0.24-0.43-0.35-0.65
			c-0.12-0.23-0.23-0.45-0.34-0.68C20.54,72.85,20.51,72.85,20.49,72.87 M104.66,73.7c-0.03,0.07-0.17,0.35-0.34,0.66l-0.51,0.91
			c-0.11,0.21-0.24,0.43-0.35,0.61c0,0.05,0.08,0.1,0.13,0.08l0.05-0.07c0.15-0.21,0.19-0.24,0.68,0.02l1.7,0.93
			c0.48,0.26,0.48,0.32,0.37,0.55l-0.08,0.19c0.01,0.05,0.1,0.08,0.14,0.06c0.11-0.22,0.27-0.52,0.38-0.73l0.3-0.54
			c0.31-0.56,0.54-0.97,0.66-1.17c-0.09-0.13-0.37-0.43-0.55-0.57c-0.06,0.01-0.12,0.08-0.11,0.14c0.28,0.37,0.35,0.54,0.01,1.15
			c-0.22,0.4-0.3,0.46-0.4,0.49c-0.12,0.03-0.28-0.05-0.52-0.18l-0.57-0.32c-0.12-0.06-0.12-0.07-0.06-0.18l0.12-0.24
			c0.23-0.41,0.29-0.49,0.49-0.42l0.2,0.07c0.05-0.03,0.1-0.11,0.08-0.15c-0.15-0.07-0.31-0.15-0.48-0.25
			c-0.17-0.09-0.33-0.19-0.45-0.27c-0.05,0-0.1,0.09-0.08,0.15l0.13,0.12c0.17,0.14,0.14,0.23-0.09,0.64l-0.12,0.24
			c-0.06,0.1-0.07,0.11-0.19,0.04l-0.77-0.42c-0.26-0.14-0.27-0.15-0.16-0.36l0.18-0.32c0.07-0.12,0.16-0.27,0.25-0.36
			c0.12-0.13,0.27-0.14,0.58-0.07c0.04-0.02,0.08-0.12,0.06-0.16C105.12,73.89,104.74,73.73,104.66,73.7 M21.32,74.53
			c-0.03,0.01-0.05,0.04-0.06,0.06l0.03,0.08c0.03,0.07,0.07,0.23,0.06,0.31c-0.03,0.24-0.1,0.28-0.45,0.49l-1.05,0.64
			c-0.35,0.22-0.74,0.45-0.92,0.47c-0.09,0.01-0.16-0.06-0.23-0.15l-0.09-0.09c-0.05-0.02-0.12,0.04-0.12,0.09
			c0.11,0.16,0.19,0.28,0.31,0.49c0.11,0.18,0.22,0.37,0.32,0.55c0.04,0.04,0.13-0.01,0.13-0.07l-0.05-0.11
			c-0.05-0.13-0.08-0.23-0.04-0.31c0.08-0.16,0.49-0.41,0.82-0.61l0.87-0.53c0.24-0.14,0.28-0.17,0.29-0.15
			c-0.02,0.12-0.09,0.38-0.23,0.88l-0.51,1.83c-0.16,0.57-0.23,0.8-0.27,0.92c0.03,0.06,0.09,0.12,0.16,0.13
			c0.09-0.08,0.64-0.41,0.77-0.49l1.07-0.64c0.35-0.22,0.74-0.45,0.92-0.46c0.09-0.01,0.16,0.06,0.23,0.14l0.09,0.09
			c0.06,0.02,0.12-0.03,0.12-0.09c-0.11-0.17-0.19-0.28-0.32-0.49c-0.11-0.18-0.22-0.37-0.32-0.56c-0.04-0.04-0.13,0.01-0.13,0.07
			l0.05,0.12c0.05,0.13,0.07,0.22,0.03,0.3c-0.08,0.16-0.49,0.42-0.82,0.62l-0.87,0.53c-0.07,0.04-0.09,0.05-0.11,0.05
			c0-0.06,0.2-0.79,0.28-1.12l0.19-0.76c0.07-0.27,0.32-1.13,0.46-1.32c-0.08-0.11-0.15-0.22-0.21-0.32
			c-0.07-0.12-0.24-0.38-0.33-0.57C21.38,74.52,21.35,74.52,21.32,74.53 M103.33,76.32c-0.03-0.01-0.06-0.02-0.08,0
			c-0.08,0.13-0.18,0.3-0.31,0.49c-0.07,0.1-0.17,0.25-0.27,0.36c0.23,0.27,0.39,0.58,0.58,0.92l0.54,0.98
			c0.13,0.23,0.21,0.38,0.29,0.54c-0.14-0.01-0.44-0.04-0.53-0.05l-1.33-0.17c-0.31-0.04-0.61-0.08-0.88-0.23
			c-0.1,0.17-0.21,0.33-0.32,0.49c-0.11,0.16-0.2,0.28-0.3,0.41c0,0,0.01,0.01,0.01,0.02c-0.01,0-0.02-0.01-0.03-0.01
			c-0.09,0.12-0.2,0.27-0.32,0.42c-0.11,0.13-0.24,0.27-0.38,0.44c-0.01,0.05,0.05,0.1,0.11,0.1l0.13-0.1
			c0.13-0.11,0.17-0.09,0.28,0.11c0.36,0.67,0.71,1.38,1.03,2.02c-0.12-0.03-0.46-0.11-0.7-0.18l-0.97-0.29
			c-0.55-0.16-0.67-0.2-0.71-0.23c-0.03-0.02-0.02-0.07,0.03-0.18l0.06-0.12c0.01-0.06-0.06-0.11-0.12-0.09
			c-0.17,0.23-0.29,0.38-0.45,0.57c-0.13,0.16-0.29,0.34-0.43,0.5c-0.03,0.05,0.05,0.11,0.1,0.1l0.1-0.09
			c0.17-0.14,0.26-0.13,0.63-0.03l2.31,0.65c0.23,0.06,0.48,0.15,0.69,0.24c0.03-0.01,0.06-0.03,0.08-0.06
			c0.03-0.03,0.04-0.07,0.04-0.08c-0.14-0.24-0.45-0.83-0.68-1.3l-0.31-0.65c-0.25-0.52-0.42-0.86-0.51-1.14
			c-0.06-0.17-0.01-0.29,0.05-0.4l0.06-0.12c0.01,0,0.01,0.01,0.01,0.01l0.13-0.14c0.14-0.16,0.29-0.16,0.48-0.03
			c0.27,0.18,0.61,0.45,0.89,0.66c0.43,0.32,0.71,0.52,0.95,0.74c0.25,0.2,0.29,0.28,0.17,0.52l-0.04,0.08
			c0.01,0.04,0.09,0.1,0.14,0.07c0.11-0.18,0.22-0.35,0.31-0.49c0.11-0.17,0.21-0.31,0.34-0.47c0.01-0.05-0.08-0.1-0.12-0.09
			l-0.13,0.13c-0.16,0.17-0.24,0.13-0.52-0.06c-0.35-0.24-0.73-0.5-0.99-0.69c-0.17-0.13-0.51-0.37-0.71-0.52l0.01-0.01
			c0.17,0.03,0.52,0.09,0.76,0.13l1.1,0.15c0.28,0.04,0.84,0.13,1.12,0.21c0.04-0.02,0.09-0.09,0.08-0.12
			c-0.15-0.22-0.48-0.77-0.67-1.13l-0.5-0.9c-0.11-0.2-0.2-0.35-0.36-0.64l0.01-0.01c0.08,0.06,0.24,0.16,0.39,0.27l1.37,0.91
			c0.3,0.2,0.32,0.24,0.22,0.43l-0.06,0.14c-0.01,0.07,0.09,0.1,0.13,0.08c0.12-0.21,0.25-0.41,0.4-0.61
			c0.12-0.19,0.24-0.36,0.38-0.54c0.02-0.06-0.08-0.13-0.12-0.1l-0.11,0.12c-0.12,0.13-0.18,0.16-0.48-0.02
			c-0.66-0.4-1.31-0.82-1.95-1.24c-0.23-0.15-0.27-0.25-0.16-0.47l0.07-0.16C103.38,76.36,103.36,76.33,103.33,76.32 M24.57,79.52
			c-0.05-0.03-0.13,0.03-0.13,0.08l0.08,0.13c0.13,0.24,0.14,0.29-0.29,0.6l-1.55,1.16c-0.43,0.33-0.48,0.3-0.66,0.1l-0.12-0.11
			c-0.05-0.03-0.12,0.05-0.11,0.1c0.15,0.18,0.32,0.4,0.49,0.63l0.34,0.47c0.37,0.5,0.66,0.88,0.79,1.08
			c0.15-0.02,0.54-0.16,0.75-0.26c0.02-0.05-0.02-0.13-0.08-0.16c-0.58,0.12-0.66,0.06-1.03-0.43c-0.27-0.36-0.29-0.46-0.27-0.55
			c0.02-0.12,0.16-0.24,0.37-0.4l1.46-1.09c0.43-0.33,0.48-0.29,0.66-0.1l0.09,0.08c0.05,0.02,0.13-0.05,0.11-0.1
			c-0.15-0.19-0.31-0.39-0.45-0.59C24.87,79.95,24.73,79.75,24.57,79.52 M25.9,81.35c-0.05-0.04-0.12,0.02-0.12,0.08l0.07,0.12
			c0.11,0.2,0.09,0.28-0.08,0.63l-1.06,2.15c-0.1,0.22-0.25,0.45-0.36,0.63c0.01,0.03,0.02,0.07,0.05,0.1
			c0.03,0.03,0.06,0.06,0.08,0.06c0.27-0.09,0.9-0.29,1.41-0.41l0.7-0.17c0.56-0.14,0.93-0.24,1.23-0.28
			c0.17-0.02,0.28,0.05,0.38,0.13l0.11,0.09c0,0-0.01,0-0.01,0.01l0.11,0.15c0.13,0.17,0.11,0.32-0.06,0.48
			c-0.23,0.22-0.56,0.5-0.83,0.73c-0.4,0.36-0.65,0.59-0.92,0.79c-0.25,0.2-0.34,0.22-0.54,0.05l-0.08-0.05
			c-0.04-0.01-0.11,0.06-0.09,0.12c0.16,0.14,0.3,0.28,0.43,0.41c0.14,0.14,0.26,0.27,0.4,0.43c0.05,0.02,0.12-0.06,0.11-0.1
			l-0.1-0.15c-0.14-0.19-0.09-0.26,0.16-0.49c0.3-0.31,0.64-0.62,0.87-0.84c0.16-0.14,0.46-0.42,0.65-0.59l0.01,0.01
			c-0.06,0.15-0.19,0.49-0.28,0.72l-0.36,1.06c-0.09,0.27-0.29,0.8-0.42,1.07c0.01,0.04,0.07,0.1,0.1,0.1
			c0.24-0.1,0.85-0.3,1.24-0.43l0.99-0.3c0.22-0.07,0.39-0.12,0.7-0.22l0.01,0.01c-0.07,0.07-0.2,0.2-0.35,0.34l-1.17,1.16
			c-0.25,0.25-0.3,0.27-0.47,0.13l-0.12-0.09c-0.06-0.02-0.11,0.06-0.1,0.11c0.18,0.17,0.35,0.33,0.53,0.52
			c0.15,0.16,0.31,0.32,0.46,0.49c0.06,0.03,0.14-0.04,0.11-0.1l-0.09-0.13c-0.11-0.14-0.12-0.21,0.11-0.47
			c0.52-0.57,1.06-1.11,1.61-1.66c0.2-0.19,0.3-0.22,0.49-0.06l0.15,0.11c0.06,0.02,0.12-0.06,0.09-0.12
			c-0.12-0.1-0.26-0.24-0.42-0.4c-0.08-0.09-0.21-0.22-0.31-0.34c-0.31,0.17-0.66,0.26-1.02,0.38l-1.08,0.33
			c-0.26,0.09-0.42,0.13-0.59,0.17c0.03-0.13,0.12-0.42,0.15-0.51L28.79,86c0.1-0.29,0.19-0.58,0.4-0.82
			c-0.15-0.14-0.29-0.27-0.43-0.41c-0.14-0.15-0.25-0.26-0.36-0.38c-0.01-0.01-0.01,0.01-0.02,0.01c0-0.01,0.02-0.02,0.01-0.03
			c-0.11-0.12-0.23-0.25-0.36-0.41c-0.11-0.13-0.23-0.28-0.37-0.47c-0.05-0.02-0.11,0.03-0.12,0.09l0.07,0.15
			c0.08,0.15,0.06,0.19-0.16,0.26c-0.73,0.23-1.5,0.43-2.19,0.61c0.06-0.12,0.2-0.43,0.31-0.66l0.46-0.9
			c0.26-0.51,0.32-0.63,0.36-0.66c0.03-0.02,0.08-0.01,0.18,0.07l0.11,0.09c0.06,0.01,0.12-0.04,0.11-0.1
			c-0.19-0.22-0.32-0.37-0.48-0.56C26.18,81.71,26.03,81.52,25.9,81.35 M97.76,83.56c-0.15,0.18-0.32,0.37-0.48,0.54
			c-0.17,0.18-0.34,0.36-0.53,0.55c-0.02,0.05,0.05,0.12,0.1,0.11l0.12-0.1c0.2-0.16,0.24-0.19,0.64,0.18l1.42,1.31
			c0.39,0.37,0.38,0.42,0.22,0.63l-0.09,0.14c-0.01,0.05,0.07,0.11,0.12,0.09c0.15-0.17,0.33-0.38,0.52-0.58l0.39-0.42
			c0.41-0.45,0.73-0.79,0.9-0.95c-0.06-0.14-0.27-0.5-0.4-0.68c-0.05-0.01-0.12,0.04-0.13,0.1c0.22,0.55,0.18,0.63-0.23,1.08
			c-0.3,0.32-0.39,0.36-0.49,0.36c-0.12,0-0.27-0.12-0.46-0.3l-1.34-1.24c-0.4-0.37-0.37-0.41-0.22-0.63l0.06-0.1
			C97.89,83.6,97.81,83.53,97.76,83.56 M95.29,86.12c-0.22,0.14-0.41,0.23-0.63,0.42c-0.59,0.53-0.6,1.13-0.26,1.51
			c0.32,0.35,0.8,0.35,1.25,0.24l0.26-0.06c0.45-0.11,0.72-0.03,0.92,0.19c0.21,0.24,0.2,0.57-0.11,0.85
			c-0.4,0.36-0.99,0.14-1.24,0.01c-0.06,0-0.12,0.07-0.11,0.13c0.21,0.24,0.5,0.46,0.65,0.47c0.12-0.02,0.44-0.1,0.81-0.43
			c0.59-0.53,0.66-1.16,0.27-1.6c-0.35-0.39-0.86-0.37-1.24-0.27l-0.37,0.1c-0.39,0.1-0.67,0.04-0.81-0.12
			c-0.18-0.21-0.24-0.53,0.09-0.82c0.35-0.31,0.72-0.18,0.96-0.03c0.05-0.01,0.13-0.07,0.12-0.13
			C95.69,86.38,95.42,86.16,95.29,86.12 M93.71,87.52c-0.11,0.1-0.25,0.22-0.41,0.33c-0.14,0.11-0.29,0.22-0.47,0.35
			c-0.02,0.04,0.03,0.11,0.09,0.12l0.15-0.07c0.15-0.07,0.18-0.05,0.25,0.17c0.21,0.74,0.4,1.5,0.56,2.2
			c-0.12-0.05-0.42-0.21-0.65-0.33l-0.88-0.49c-0.5-0.28-0.61-0.34-0.64-0.38c-0.02-0.03-0.01-0.08,0.07-0.17l0.09-0.11
			c0.02-0.05-0.04-0.12-0.09-0.12c-0.22,0.19-0.37,0.31-0.56,0.46c-0.17,0.14-0.35,0.27-0.53,0.4c-0.03,0.05,0.02,0.12,0.08,0.13
			l0.12-0.06c0.2-0.1,0.28-0.07,0.62,0.1l2.1,1.13c0.22,0.11,0.44,0.26,0.62,0.38c0.03-0.01,0.06-0.02,0.09-0.04
			c0.03-0.02,0.06-0.06,0.06-0.08c-0.09-0.27-0.27-0.9-0.38-1.41l-0.16-0.7c-0.13-0.56-0.23-0.93-0.26-1.22
			c-0.02-0.18,0.05-0.28,0.14-0.38l0.08-0.1C93.81,87.58,93.76,87.51,93.71,87.52 M32.02,87.95c-0.05-0.01-0.11,0.06-0.11,0.11
			L32,88.16c0.17,0.19,0.2,0.24-0.16,0.66l-1.28,1.45c-0.36,0.41-0.41,0.39-0.63,0.25l-0.1-0.07c-0.05,0-0.11,0.07-0.09,0.12
			c0.19,0.15,0.39,0.33,0.57,0.49c0.18,0.16,0.37,0.33,0.55,0.5c0.05,0.01,0.11-0.05,0.11-0.11l-0.08-0.09
			c-0.18-0.19-0.2-0.24,0.16-0.65l1.27-1.45c0.37-0.42,0.41-0.4,0.63-0.25l0.1,0.07c0.05,0,0.11-0.07,0.09-0.12
			c-0.19-0.15-0.38-0.31-0.57-0.47C32.38,88.29,32.2,88.13,32.02,87.95 M62.6,88.25l-0.35,0.14l-0.26,0.63l0.43,0.24l0.39-0.21
			L62.6,88.25z M33.39,89.2c-0.05-0.02-0.12,0.06-0.11,0.11l0.06,0.06c0.05,0.06,0.15,0.18,0.17,0.26c0.06,0.24,0,0.3-0.24,0.63
			l-0.75,0.97C32.27,91.56,32,91.92,31.84,92c-0.08,0.04-0.17,0-0.27-0.05l-0.11-0.05c-0.06,0.01-0.1,0.08-0.08,0.13
			c0.16,0.11,0.29,0.19,0.47,0.34c0.17,0.12,0.34,0.26,0.49,0.39c0.05,0.02,0.12-0.05,0.1-0.12l-0.09-0.08
			c-0.1-0.1-0.15-0.18-0.15-0.27c0.02-0.18,0.3-0.57,0.54-0.88l0.61-0.81c0.16-0.22,0.2-0.27,0.21-0.25
			c0.03,0.12,0.05,0.38,0.11,0.9l0.19,1.9c0.06,0.58,0.08,0.82,0.09,0.96c0.05,0.04,0.12,0.07,0.19,0.06
			c0.06-0.11,0.45-0.62,0.54-0.74l0.75-0.99c0.25-0.33,0.52-0.69,0.68-0.77c0.08-0.04,0.17,0,0.26,0.05l0.12,0.06
			c0.06-0.01,0.1-0.08,0.08-0.13c-0.17-0.11-0.29-0.2-0.48-0.34c-0.17-0.13-0.33-0.26-0.5-0.4c-0.05-0.02-0.12,0.06-0.1,0.12
			l0.09,0.09c0.1,0.1,0.15,0.18,0.14,0.27c-0.01,0.18-0.3,0.57-0.54,0.88l-0.61,0.8c-0.05,0.07-0.07,0.09-0.09,0.09
			c-0.02-0.06-0.1-0.82-0.14-1.14l-0.1-0.79c-0.03-0.28-0.12-1.17-0.06-1.4c-0.11-0.07-0.22-0.15-0.32-0.22
			C33.79,89.53,33.54,89.35,33.39,89.2 M90.56,90c-0.12,0.08-0.28,0.19-0.47,0.32c-0.1,0.07-0.25,0.16-0.38,0.24
			c0.11,0.33,0.13,0.69,0.17,1.08l0.12,1.12c0.03,0.27,0.05,0.43,0.06,0.6c-0.12-0.06-0.38-0.2-0.47-0.26l-1.16-0.68
			c-0.26-0.16-0.53-0.31-0.72-0.55c-0.16,0.12-0.32,0.23-0.48,0.33c-0.17,0.11-0.3,0.18-0.44,0.27c-0.03,0.04,0.02,0.13,0.07,0.14
			l0.17-0.08c0.19-0.09,0.32-0.04,0.46,0.16c0.17,0.27,0.38,0.65,0.56,0.96c0.27,0.46,0.45,0.75,0.59,1.06
			c0.14,0.29,0.15,0.37-0.05,0.54L88.5,95.3c-0.01,0.04,0.04,0.12,0.09,0.12c0.17-0.12,0.34-0.24,0.48-0.33
			c0.17-0.11,0.32-0.2,0.49-0.3c0.02-0.04-0.03-0.13-0.08-0.13l-0.16,0.07c-0.22,0.1-0.27,0.03-0.46-0.25
			c-0.24-0.36-0.48-0.76-0.64-1.03c-0.11-0.18-0.32-0.53-0.45-0.75l0.01-0.01c0.14,0.1,0.45,0.29,0.65,0.42l0.96,0.57
			c0.25,0.15,0.72,0.45,0.95,0.63c0.04,0,0.11-0.05,0.12-0.08c-0.05-0.25-0.13-0.89-0.18-1.29l-0.11-1.02
			c-0.02-0.23-0.04-0.4-0.08-0.72l0.01-0.01c0.05,0.08,0.15,0.24,0.27,0.4l0.89,1.38c0.2,0.3,0.2,0.34,0.04,0.49l-0.11,0.1
			c-0.02,0.05,0.04,0.13,0.09,0.12c0.2-0.14,0.39-0.27,0.6-0.41c0.18-0.12,0.36-0.23,0.57-0.35c0.04-0.05-0.02-0.14-0.07-0.13
			l-0.15,0.06c-0.16,0.08-0.23,0.08-0.43-0.2c-0.45-0.63-0.88-1.26-1.3-1.91c-0.15-0.23-0.15-0.34,0.03-0.49l0.14-0.12
			C90.68,90.06,90.62,89.98,90.56,90 M36.99,91.88c-0.05-0.01-0.1,0.07-0.09,0.12l0.07,0.06c0.2,0.17,0.24,0.21-0.06,0.67
			l-1.03,1.64c-0.3,0.47-0.35,0.45-0.58,0.34l-0.18-0.09c-0.05,0.01-0.1,0.09-0.07,0.13c0.22,0.13,0.51,0.3,0.72,0.43l0.53,0.34
			c0.55,0.35,0.95,0.61,1.16,0.75c0.14-0.08,0.45-0.35,0.6-0.51c0-0.06-0.07-0.13-0.13-0.12c-0.39,0.26-0.57,0.32-1.17-0.07
			c-0.4-0.25-0.45-0.34-0.47-0.43c-0.02-0.12,0.07-0.28,0.21-0.51l0.35-0.55c0.07-0.11,0.08-0.12,0.19-0.05l0.23,0.14
			c0.41,0.26,0.48,0.32,0.4,0.52l-0.08,0.2c0.02,0.05,0.11,0.1,0.15,0.09c0.08-0.14,0.17-0.3,0.28-0.47
			c0.1-0.16,0.21-0.32,0.29-0.43c0-0.05-0.09-0.11-0.15-0.1l-0.13,0.13c-0.15,0.16-0.24,0.12-0.64-0.14l-0.23-0.14
			c-0.11-0.07-0.11-0.07-0.04-0.19l0.47-0.74c0.16-0.25,0.16-0.26,0.37-0.13l0.32,0.21c0.13,0.08,0.26,0.18,0.35,0.28
			c0.13,0.13,0.13,0.29,0.04,0.59c0.02,0.05,0.12,0.1,0.16,0.07c0.09-0.2,0.28-0.57,0.31-0.66c-0.07-0.02-0.34-0.19-0.64-0.38
			l-0.9-0.57C37.38,92.14,37.16,92,36.99,91.88 M86.31,92.69c-0.2,0.12-0.42,0.26-0.63,0.37c-0.22,0.11-0.43,0.23-0.65,0.34
			c-0.03,0.04,0.01,0.12,0.06,0.14l0.11-0.04c0.24-0.1,0.29-0.11,0.56,0.37l0.94,1.69c0.27,0.48,0.24,0.52,0.02,0.68l-0.09,0.07
			c-0.02,0.05,0.04,0.12,0.08,0.12c0.2-0.12,0.42-0.26,0.64-0.38s0.43-0.23,0.64-0.34c0.03-0.04-0.01-0.12-0.06-0.13l-0.12,0.04
			c-0.24,0.1-0.29,0.11-0.56-0.37l-0.94-1.68c-0.27-0.48-0.24-0.52-0.03-0.68l0.1-0.07C86.42,92.76,86.36,92.68,86.31,92.69
			 M84.14,94.09c-0.29-0.01-0.63,0.11-1.04,0.32c-0.54,0.27-0.88,0.46-1.1,0.59c-0.03,0.04,0.01,0.12,0.06,0.13l0.13-0.05
			c0.24-0.09,0.27-0.04,0.49,0.41l0.85,1.7c0.24,0.49,0.2,0.53-0.01,0.68l-0.1,0.07c-0.02,0.05,0.02,0.13,0.07,0.13
			c0.21-0.11,0.44-0.23,0.66-0.35c0.18-0.09,0.4-0.18,0.61-0.28c0.56-0.28,0.85-0.52,0.98-0.82c0.14-0.28,0.1-0.55-0.01-0.77
			c-0.27-0.52-0.79-0.55-1.19-0.42c-0.04,0.01-0.05,0-0.06-0.01c0-0.01,0-0.03,0.02-0.04c0.29-0.28,0.39-0.59,0.26-0.87
			C84.63,94.23,84.42,94.1,84.14,94.09 M41.23,94.27c-0.11,0.15-0.33,0.41-0.53,0.63c0,0.05,0.1,0.12,0.14,0.1
			c0.36-0.3,0.52-0.29,0.99-0.07l0.28,0.13c0.13,0.06,0.13,0.07,0.04,0.27l-0.95,2.04c-0.23,0.5-0.29,0.49-0.53,0.4l-0.23-0.07
			c-0.05,0.01-0.08,0.11-0.05,0.14c0.33,0.14,0.57,0.25,0.79,0.35c0.23,0.1,0.45,0.21,0.74,0.36c0.05,0,0.09-0.09,0.07-0.14
			l-0.17-0.1c-0.23-0.13-0.27-0.16-0.03-0.67l0.95-2.04c0.09-0.2,0.1-0.21,0.23-0.14l0.29,0.13c0.54,0.26,0.59,0.39,0.49,0.79
			c0.03,0.05,0.12,0.09,0.16,0.06c0.04-0.12,0.17-0.34,0.3-0.52c0,0.01-0.01,0.03,0,0.04l0.11,0.07c0.19,0.11,0.22,0.2,0.25,0.57
			l0.18,2.39c0.02,0.24,0.02,0.51,0.01,0.73c0.02,0.03,0.05,0.05,0.09,0.06c0.04,0.01,0.08,0.02,0.1,0.01
			c0.18-0.22,0.63-0.71,0.99-1.08l0.51-0.51c0.41-0.41,0.68-0.69,0.91-0.86c0.14-0.11,0.27-0.11,0.4-0.09l0.14,0.02
			c0.04-0.02,0.07-0.1,0.04-0.14c-0.15-0.04-0.33-0.1-0.51-0.17c-0.17-0.06-0.35-0.13-0.56-0.22c-0.05,0.01-0.08,0.09-0.06,0.14
			l0.14,0.09c0.15,0.09,0.15,0.14-0.01,0.3c-0.51,0.57-1.07,1.13-1.57,1.65c-0.01-0.13-0.05-0.47-0.06-0.73l-0.07-1
			c-0.04-0.58-0.04-0.7-0.02-0.75c0.01-0.04,0.06-0.05,0.19-0.03l0.14,0.02c0.06-0.02,0.08-0.1,0.04-0.15
			c-0.28-0.09-0.46-0.14-0.7-0.23c-0.2-0.07-0.43-0.16-0.63-0.24c0,0,0,0-0.01,0c0.02-0.03,0.05-0.08,0.07-0.1
			c0-0.02-0.02-0.04-0.05-0.06c-0.02,0-0.05,0-0.07,0c-0.11,0.08-0.19,0.05-0.44-0.06l-2.06-0.96c-0.34-0.16-0.41-0.2-0.38-0.33
			c0-0.02-0.02-0.03-0.04-0.04C41.27,94.26,41.25,94.26,41.23,94.27 M83.5,94.48c0.25-0.04,0.51,0.04,0.66,0.34
			c0.21,0.42,0.09,0.7-0.38,0.93c-0.19,0.1-0.21,0.1-0.27-0.02l-0.42-0.84c-0.09-0.18-0.08-0.2,0.17-0.33
			C83.34,94.52,83.41,94.49,83.5,94.48 M81.35,95.24c-0.06,0.04-0.35,0.17-0.68,0.31l-0.96,0.41c-0.22,0.09-0.46,0.18-0.66,0.26
			c-0.04,0.04-0.01,0.12,0.04,0.14l0.09-0.02c0.25-0.07,0.3-0.07,0.52,0.44l0.76,1.78c0.22,0.51,0.18,0.54-0.05,0.67l-0.18,0.1
			c-0.02,0.04,0.02,0.13,0.07,0.13c0.22-0.1,0.53-0.24,0.75-0.33l0.57-0.24c0.59-0.25,1.02-0.43,1.25-0.51
			c0.02-0.16-0.03-0.57-0.08-0.78c-0.05-0.04-0.14-0.01-0.17,0.04c-0.01,0.46-0.07,0.65-0.71,0.91c-0.42,0.18-0.52,0.17-0.61,0.13
			c-0.11-0.05-0.19-0.22-0.3-0.46l-0.26-0.61c-0.05-0.12-0.05-0.13,0.06-0.18l0.24-0.1c0.44-0.18,0.53-0.22,0.65-0.03l0.12,0.18
			c0.05,0.01,0.15-0.02,0.16-0.07c-0.07-0.15-0.15-0.31-0.23-0.49c-0.08-0.18-0.14-0.36-0.19-0.49c-0.04-0.02-0.13,0.01-0.16,0.07
			l0.03,0.17c0.06,0.22-0.03,0.27-0.46,0.45l-0.24,0.1c-0.12,0.05-0.13,0.05-0.18-0.07l-0.34-0.81c-0.12-0.28-0.12-0.29,0.09-0.38
			l0.34-0.14c0.14-0.05,0.29-0.11,0.42-0.13c0.17-0.03,0.3,0.06,0.5,0.3c0.05,0.01,0.15-0.04,0.15-0.09
			C81.6,95.68,81.41,95.32,81.35,95.24 M84.46,95.77c0.3,0.01,0.54,0.16,0.69,0.47c0.21,0.41,0.01,0.77-0.33,0.94
			c-0.42,0.21-0.56,0.06-0.77-0.36l-0.34-0.67c-0.04-0.09-0.05-0.12,0.17-0.24C84.09,95.82,84.29,95.77,84.46,95.77 M77.59,96.95
			c-0.42,0-0.78,0.09-1.27,0.25c-0.5,0.17-0.91,0.33-1.27,0.49c-0.04,0.04-0.01,0.12,0.04,0.14l0.11-0.03
			c0.25-0.05,0.28,0,0.44,0.48l0.63,1.8c0.18,0.52,0.13,0.55-0.09,0.66l-0.11,0.06c-0.02,0.05,0.01,0.14,0.06,0.14
			c0.22-0.09,0.45-0.17,0.65-0.24c0.19-0.07,0.45-0.12,0.76-0.24c0.47-0.16,0.89-0.37,1.2-0.68c0.53-0.53,0.63-1.19,0.43-1.74
			C78.9,97.32,78.29,96.95,77.59,96.95 M77.12,97.24c0.59-0.01,1.08,0.32,1.33,1.06c0.29,0.83,0.09,1.59-0.83,1.91
			c-0.55,0.19-0.68-0.05-0.84-0.53l-0.6-1.73c-0.08-0.23-0.11-0.34-0.09-0.38c0.02-0.04,0.18-0.14,0.39-0.22
			C76.72,97.28,76.93,97.24,77.12,97.24 M49.35,97.42c-0.95-0.07-1.74,0.48-1.96,1.38c-0.23,0.9,0.28,1.88,1.5,2.18
			c1.09,0.27,2.09-0.27,2.33-1.27c0.23-0.92-0.21-1.91-1.46-2.22C49.62,97.45,49.48,97.43,49.35,97.42 M49.43,97.64
			c0.07,0.01,0.14,0.02,0.21,0.04c0.86,0.21,1.01,1.19,0.82,1.95c-0.25,1.02-0.86,1.32-1.47,1.17c-0.92-0.23-1.01-1.25-0.83-1.95
			C48.39,97.9,48.94,97.61,49.43,97.64 M74.49,97.78c-0.23,0.07-0.46,0.14-0.69,0.21c-0.24,0.07-0.48,0.13-0.72,0.19
			c-0.01,0-0.01,0.03-0.01,0.05c-0.15,0.04-0.32,0.08-0.51,0.12c-0.17,0.04-0.35,0.07-0.57,0.1c-0.04,0.04-0.03,0.12,0.02,0.15h0.16
			c0.16,0,0.2,0.04,0.15,0.26c-0.14,0.75-0.3,1.53-0.46,2.22c-0.08-0.1-0.29-0.37-0.43-0.58l-0.58-0.82
			c-0.33-0.48-0.39-0.57-0.41-0.63c-0.01-0.04,0.03-0.07,0.14-0.12l0.13-0.06c0.04-0.04,0.02-0.12-0.04-0.14
			c-0.29,0.07-0.46,0.11-0.71,0.17c-0.2,0.04-0.44,0.08-0.65,0.12c-0.05,0.03-0.03,0.12,0.02,0.14h0.13
			c0.22-0.01,0.29,0.05,0.51,0.36l1.39,1.94c0.14,0.19,0.29,0.43,0.39,0.62c0.03,0.01,0.07,0.01,0.1,0
			c0.04-0.01,0.08-0.02,0.09-0.04c0.04-0.28,0.16-0.92,0.27-1.44l0.17-0.69c0.13-0.57,0.21-0.94,0.31-1.22
			c0.05-0.17,0.16-0.23,0.28-0.28l0.13-0.05c0.01-0.01,0-0.03,0-0.04l0.12-0.02c0.25-0.04,0.3-0.04,0.46,0.49l0.52,1.86
			c0.15,0.53,0.11,0.56-0.13,0.66l-0.11,0.05c-0.03,0.04,0,0.13,0.05,0.14c0.23-0.07,0.48-0.15,0.71-0.22
			c0.24-0.06,0.47-0.13,0.7-0.18c0.04-0.04,0.02-0.12-0.03-0.15l-0.12,0.01c-0.25,0.04-0.31,0.04-0.46-0.49l-0.52-1.87
			c-0.15-0.53-0.1-0.56,0.13-0.66l0.11-0.04C74.57,97.87,74.54,97.79,74.49,97.78"/>
	</g>
</g>
</svg>
